G04 (created by PCBNEW (2013-jul-07)-stable) date Ср. 13 мая 2015 13:25:06*
%MOIN*%
G04 Gerber Fmt 3.4, Leading zero omitted, Abs format*
%FSLAX34Y34*%
G01*
G70*
G90*
G04 APERTURE LIST*
%ADD10C,0.00590551*%
G04 APERTURE END LIST*
G54D10*
G36*
X43340Y-13473D02*
X43339Y-13535D01*
X43322Y-13614D01*
X43300Y-13662D01*
X43253Y-13728D01*
X43216Y-13764D01*
X43147Y-13808D01*
X43099Y-13827D01*
X43018Y-13841D01*
X42967Y-13840D01*
X42886Y-13822D01*
X42840Y-13802D01*
X42772Y-13755D01*
X42737Y-13718D01*
X42692Y-13649D01*
X42673Y-13602D01*
X42658Y-13520D01*
X42659Y-13470D01*
X42676Y-13388D01*
X42696Y-13342D01*
X42743Y-13273D01*
X42779Y-13238D01*
X42849Y-13192D01*
X42894Y-13174D01*
X42977Y-13158D01*
X43026Y-13159D01*
X43109Y-13176D01*
X43154Y-13194D01*
X43225Y-13242D01*
X43259Y-13276D01*
X43306Y-13347D01*
X43324Y-13392D01*
X43340Y-13473D01*
X43340Y-13473D01*
G37*
G36*
X43340Y-14473D02*
X43339Y-14535D01*
X43322Y-14614D01*
X43300Y-14662D01*
X43253Y-14728D01*
X43216Y-14764D01*
X43147Y-14808D01*
X43099Y-14827D01*
X43018Y-14841D01*
X42967Y-14840D01*
X42886Y-14822D01*
X42840Y-14802D01*
X42772Y-14755D01*
X42737Y-14718D01*
X42692Y-14649D01*
X42673Y-14602D01*
X42658Y-14520D01*
X42659Y-14470D01*
X42676Y-14388D01*
X42696Y-14342D01*
X42743Y-14273D01*
X42779Y-14238D01*
X42849Y-14192D01*
X42894Y-14174D01*
X42977Y-14158D01*
X43026Y-14159D01*
X43109Y-14176D01*
X43154Y-14194D01*
X43225Y-14242D01*
X43259Y-14276D01*
X43306Y-14347D01*
X43324Y-14392D01*
X43340Y-14473D01*
X43340Y-14473D01*
G37*
G36*
X43340Y-15473D02*
X43339Y-15535D01*
X43322Y-15614D01*
X43300Y-15662D01*
X43253Y-15728D01*
X43216Y-15764D01*
X43147Y-15808D01*
X43099Y-15827D01*
X43018Y-15841D01*
X42967Y-15840D01*
X42886Y-15822D01*
X42840Y-15802D01*
X42772Y-15755D01*
X42737Y-15718D01*
X42692Y-15649D01*
X42673Y-15602D01*
X42658Y-15520D01*
X42659Y-15470D01*
X42676Y-15388D01*
X42696Y-15342D01*
X42743Y-15273D01*
X42779Y-15238D01*
X42849Y-15192D01*
X42894Y-15174D01*
X42977Y-15158D01*
X43026Y-15159D01*
X43109Y-15176D01*
X43154Y-15194D01*
X43225Y-15242D01*
X43259Y-15276D01*
X43306Y-15347D01*
X43324Y-15392D01*
X43340Y-15473D01*
X43340Y-15473D01*
G37*
G36*
X43340Y-16473D02*
X43339Y-16535D01*
X43322Y-16614D01*
X43300Y-16662D01*
X43253Y-16728D01*
X43216Y-16764D01*
X43147Y-16808D01*
X43099Y-16827D01*
X43018Y-16841D01*
X42967Y-16840D01*
X42886Y-16822D01*
X42840Y-16802D01*
X42772Y-16755D01*
X42737Y-16718D01*
X42692Y-16649D01*
X42673Y-16602D01*
X42658Y-16520D01*
X42659Y-16470D01*
X42676Y-16388D01*
X42696Y-16342D01*
X42743Y-16273D01*
X42779Y-16238D01*
X42849Y-16192D01*
X42894Y-16174D01*
X42977Y-16158D01*
X43026Y-16159D01*
X43109Y-16176D01*
X43154Y-16194D01*
X43225Y-16242D01*
X43259Y-16276D01*
X43306Y-16347D01*
X43324Y-16392D01*
X43340Y-16473D01*
X43340Y-16473D01*
G37*
G36*
X43341Y-12841D02*
X42658Y-12841D01*
X42658Y-12158D01*
X43341Y-12158D01*
X43341Y-12841D01*
X43341Y-12841D01*
G37*
G36*
X43341Y-18841D02*
X42658Y-18841D01*
X42658Y-18158D01*
X43341Y-18158D01*
X43341Y-18841D01*
X43341Y-18841D01*
G37*
G36*
X43341Y-19841D02*
X42658Y-19841D01*
X42658Y-19158D01*
X43341Y-19158D01*
X43341Y-19841D01*
X43341Y-19841D01*
G37*
G36*
X44339Y-15979D02*
X44339Y-16027D01*
X44324Y-16094D01*
X44307Y-16130D01*
X44268Y-16186D01*
X44239Y-16214D01*
X44181Y-16251D01*
X44144Y-16265D01*
X44076Y-16277D01*
X44037Y-16276D01*
X43969Y-16261D01*
X43934Y-16246D01*
X43876Y-16206D01*
X43850Y-16178D01*
X43812Y-16119D01*
X43798Y-16084D01*
X43785Y-16014D01*
X43786Y-15977D01*
X43800Y-15907D01*
X43815Y-15873D01*
X43855Y-15814D01*
X43882Y-15788D01*
X43942Y-15749D01*
X43976Y-15735D01*
X44046Y-15722D01*
X44083Y-15722D01*
X44153Y-15737D01*
X44187Y-15751D01*
X44247Y-15791D01*
X44272Y-15817D01*
X44312Y-15877D01*
X44326Y-15910D01*
X44339Y-15979D01*
X44339Y-15979D01*
G37*
G36*
X44340Y-18473D02*
X44339Y-18535D01*
X44322Y-18614D01*
X44300Y-18662D01*
X44253Y-18728D01*
X44216Y-18764D01*
X44147Y-18808D01*
X44099Y-18827D01*
X44018Y-18841D01*
X43967Y-18840D01*
X43886Y-18822D01*
X43840Y-18802D01*
X43772Y-18755D01*
X43737Y-18718D01*
X43692Y-18649D01*
X43673Y-18602D01*
X43658Y-18520D01*
X43659Y-18470D01*
X43676Y-18388D01*
X43696Y-18342D01*
X43743Y-18273D01*
X43779Y-18238D01*
X43849Y-18192D01*
X43894Y-18174D01*
X43977Y-18158D01*
X44026Y-18159D01*
X44109Y-18176D01*
X44154Y-18194D01*
X44225Y-18242D01*
X44259Y-18276D01*
X44306Y-18347D01*
X44324Y-18392D01*
X44340Y-18473D01*
X44340Y-18473D01*
G37*
G36*
X44340Y-19473D02*
X44339Y-19535D01*
X44322Y-19614D01*
X44300Y-19662D01*
X44253Y-19728D01*
X44216Y-19764D01*
X44147Y-19808D01*
X44099Y-19827D01*
X44018Y-19841D01*
X43967Y-19840D01*
X43886Y-19822D01*
X43840Y-19802D01*
X43772Y-19755D01*
X43737Y-19718D01*
X43692Y-19649D01*
X43673Y-19602D01*
X43658Y-19520D01*
X43659Y-19470D01*
X43676Y-19388D01*
X43696Y-19342D01*
X43743Y-19273D01*
X43779Y-19238D01*
X43849Y-19192D01*
X43894Y-19174D01*
X43977Y-19158D01*
X44026Y-19159D01*
X44109Y-19176D01*
X44154Y-19194D01*
X44225Y-19242D01*
X44259Y-19276D01*
X44306Y-19347D01*
X44324Y-19392D01*
X44340Y-19473D01*
X44340Y-19473D01*
G37*
G36*
X45578Y-11925D02*
X45575Y-12097D01*
X45536Y-12269D01*
X45476Y-12404D01*
X45374Y-12548D01*
X45267Y-12650D01*
X45118Y-12745D01*
X44980Y-12798D01*
X44806Y-12829D01*
X44659Y-12826D01*
X44485Y-12788D01*
X44351Y-12729D01*
X44204Y-12628D01*
X44103Y-12522D01*
X44006Y-12372D01*
X43952Y-12237D01*
X43920Y-12061D01*
X43922Y-11915D01*
X43959Y-11740D01*
X44017Y-11606D01*
X44118Y-11458D01*
X44222Y-11357D01*
X44372Y-11258D01*
X44506Y-11204D01*
X44683Y-11170D01*
X44827Y-11171D01*
X45004Y-11208D01*
X45137Y-11264D01*
X45287Y-11365D01*
X45388Y-11467D01*
X45488Y-11617D01*
X45543Y-11750D01*
X45578Y-11925D01*
X45578Y-11925D01*
G37*
G36*
X52214Y-15979D02*
X52213Y-16027D01*
X52198Y-16094D01*
X52181Y-16130D01*
X52142Y-16186D01*
X52113Y-16214D01*
X52055Y-16251D01*
X52018Y-16265D01*
X51950Y-16277D01*
X51911Y-16276D01*
X51843Y-16261D01*
X51808Y-16246D01*
X51750Y-16206D01*
X51724Y-16178D01*
X51686Y-16119D01*
X51672Y-16084D01*
X51659Y-16014D01*
X51660Y-15977D01*
X51674Y-15907D01*
X51689Y-15873D01*
X51729Y-15814D01*
X51756Y-15788D01*
X51816Y-15749D01*
X51850Y-15735D01*
X51920Y-15722D01*
X51957Y-15722D01*
X52027Y-15737D01*
X52061Y-15751D01*
X52121Y-15791D01*
X52146Y-15817D01*
X52186Y-15877D01*
X52200Y-15910D01*
X52214Y-15979D01*
X52214Y-15979D01*
G37*
G36*
X56105Y-11763D02*
X56104Y-11825D01*
X56087Y-11904D01*
X56065Y-11952D01*
X56018Y-12018D01*
X55981Y-12054D01*
X55912Y-12098D01*
X55864Y-12117D01*
X55783Y-12131D01*
X55732Y-12130D01*
X55651Y-12112D01*
X55605Y-12092D01*
X55537Y-12045D01*
X55502Y-12008D01*
X55457Y-11939D01*
X55438Y-11892D01*
X55423Y-11810D01*
X55424Y-11760D01*
X55441Y-11678D01*
X55461Y-11632D01*
X55508Y-11563D01*
X55544Y-11528D01*
X55614Y-11482D01*
X55659Y-11464D01*
X55742Y-11448D01*
X55791Y-11449D01*
X55874Y-11466D01*
X55919Y-11484D01*
X55990Y-11532D01*
X56024Y-11566D01*
X56071Y-11637D01*
X56089Y-11682D01*
X56105Y-11763D01*
X56105Y-11763D01*
G37*
G36*
X56105Y-12763D02*
X56104Y-12825D01*
X56087Y-12904D01*
X56065Y-12952D01*
X56018Y-13018D01*
X55981Y-13054D01*
X55912Y-13098D01*
X55864Y-13117D01*
X55783Y-13131D01*
X55732Y-13130D01*
X55651Y-13112D01*
X55605Y-13092D01*
X55537Y-13045D01*
X55502Y-13008D01*
X55457Y-12939D01*
X55438Y-12892D01*
X55423Y-12810D01*
X55424Y-12760D01*
X55441Y-12678D01*
X55461Y-12632D01*
X55508Y-12563D01*
X55544Y-12528D01*
X55614Y-12482D01*
X55659Y-12464D01*
X55742Y-12448D01*
X55791Y-12449D01*
X55874Y-12466D01*
X55919Y-12484D01*
X55990Y-12532D01*
X56024Y-12566D01*
X56071Y-12637D01*
X56089Y-12682D01*
X56105Y-12763D01*
X56105Y-12763D01*
G37*
G36*
X56105Y-13763D02*
X56104Y-13825D01*
X56087Y-13904D01*
X56065Y-13952D01*
X56018Y-14018D01*
X55981Y-14054D01*
X55912Y-14098D01*
X55864Y-14117D01*
X55783Y-14131D01*
X55732Y-14130D01*
X55651Y-14112D01*
X55605Y-14092D01*
X55537Y-14045D01*
X55502Y-14008D01*
X55457Y-13939D01*
X55438Y-13892D01*
X55423Y-13810D01*
X55424Y-13760D01*
X55441Y-13678D01*
X55461Y-13632D01*
X55508Y-13563D01*
X55544Y-13528D01*
X55614Y-13482D01*
X55659Y-13464D01*
X55742Y-13448D01*
X55791Y-13449D01*
X55874Y-13466D01*
X55919Y-13484D01*
X55990Y-13532D01*
X56024Y-13566D01*
X56071Y-13637D01*
X56089Y-13682D01*
X56105Y-13763D01*
X56105Y-13763D01*
G37*
G36*
X56105Y-14763D02*
X56104Y-14825D01*
X56087Y-14904D01*
X56065Y-14952D01*
X56018Y-15018D01*
X55981Y-15054D01*
X55912Y-15098D01*
X55864Y-15117D01*
X55783Y-15131D01*
X55732Y-15130D01*
X55651Y-15112D01*
X55605Y-15092D01*
X55537Y-15045D01*
X55502Y-15008D01*
X55457Y-14939D01*
X55438Y-14892D01*
X55423Y-14810D01*
X55424Y-14760D01*
X55441Y-14678D01*
X55461Y-14632D01*
X55508Y-14563D01*
X55544Y-14528D01*
X55614Y-14482D01*
X55659Y-14464D01*
X55742Y-14448D01*
X55791Y-14449D01*
X55874Y-14466D01*
X55919Y-14484D01*
X55990Y-14532D01*
X56024Y-14566D01*
X56071Y-14637D01*
X56089Y-14682D01*
X56105Y-14763D01*
X56105Y-14763D01*
G37*
G36*
X56161Y-17086D02*
X55478Y-17086D01*
X55478Y-16403D01*
X56161Y-16403D01*
X56161Y-17086D01*
X56161Y-17086D01*
G37*
G36*
X57105Y-11763D02*
X57104Y-11825D01*
X57087Y-11904D01*
X57065Y-11952D01*
X57018Y-12018D01*
X56981Y-12054D01*
X56912Y-12098D01*
X56864Y-12117D01*
X56783Y-12131D01*
X56732Y-12130D01*
X56651Y-12112D01*
X56605Y-12092D01*
X56537Y-12045D01*
X56502Y-12008D01*
X56457Y-11939D01*
X56438Y-11892D01*
X56423Y-11810D01*
X56424Y-11760D01*
X56441Y-11678D01*
X56461Y-11632D01*
X56508Y-11563D01*
X56544Y-11528D01*
X56614Y-11482D01*
X56659Y-11464D01*
X56742Y-11448D01*
X56791Y-11449D01*
X56874Y-11466D01*
X56919Y-11484D01*
X56990Y-11532D01*
X57024Y-11566D01*
X57071Y-11637D01*
X57089Y-11682D01*
X57105Y-11763D01*
X57105Y-11763D01*
G37*
G36*
X57105Y-12763D02*
X57104Y-12825D01*
X57087Y-12904D01*
X57065Y-12952D01*
X57018Y-13018D01*
X56981Y-13054D01*
X56912Y-13098D01*
X56864Y-13117D01*
X56783Y-13131D01*
X56732Y-13130D01*
X56651Y-13112D01*
X56605Y-13092D01*
X56537Y-13045D01*
X56502Y-13008D01*
X56457Y-12939D01*
X56438Y-12892D01*
X56423Y-12810D01*
X56424Y-12760D01*
X56441Y-12678D01*
X56461Y-12632D01*
X56508Y-12563D01*
X56544Y-12528D01*
X56614Y-12482D01*
X56659Y-12464D01*
X56742Y-12448D01*
X56791Y-12449D01*
X56874Y-12466D01*
X56919Y-12484D01*
X56990Y-12532D01*
X57024Y-12566D01*
X57071Y-12637D01*
X57089Y-12682D01*
X57105Y-12763D01*
X57105Y-12763D01*
G37*
G36*
X57105Y-13763D02*
X57104Y-13825D01*
X57087Y-13904D01*
X57065Y-13952D01*
X57018Y-14018D01*
X56981Y-14054D01*
X56912Y-14098D01*
X56864Y-14117D01*
X56783Y-14131D01*
X56732Y-14130D01*
X56651Y-14112D01*
X56605Y-14092D01*
X56537Y-14045D01*
X56502Y-14008D01*
X56457Y-13939D01*
X56438Y-13892D01*
X56423Y-13810D01*
X56424Y-13760D01*
X56441Y-13678D01*
X56461Y-13632D01*
X56508Y-13563D01*
X56544Y-13528D01*
X56614Y-13482D01*
X56659Y-13464D01*
X56742Y-13448D01*
X56791Y-13449D01*
X56874Y-13466D01*
X56919Y-13484D01*
X56990Y-13532D01*
X57024Y-13566D01*
X57071Y-13637D01*
X57089Y-13682D01*
X57105Y-13763D01*
X57105Y-13763D01*
G37*
G36*
X57106Y-15131D02*
X56423Y-15131D01*
X56423Y-14448D01*
X57106Y-14448D01*
X57106Y-15131D01*
X57106Y-15131D01*
G37*
G36*
X57160Y-16718D02*
X57159Y-16780D01*
X57142Y-16859D01*
X57120Y-16907D01*
X57073Y-16973D01*
X57036Y-17009D01*
X56967Y-17053D01*
X56919Y-17072D01*
X56838Y-17086D01*
X56787Y-17085D01*
X56706Y-17067D01*
X56660Y-17047D01*
X56592Y-17000D01*
X56557Y-16963D01*
X56512Y-16894D01*
X56493Y-16847D01*
X56478Y-16765D01*
X56479Y-16715D01*
X56496Y-16633D01*
X56516Y-16587D01*
X56563Y-16518D01*
X56599Y-16483D01*
X56669Y-16437D01*
X56714Y-16419D01*
X56797Y-16403D01*
X56846Y-16404D01*
X56929Y-16421D01*
X56974Y-16439D01*
X57045Y-16487D01*
X57079Y-16521D01*
X57126Y-16592D01*
X57144Y-16637D01*
X57160Y-16718D01*
X57160Y-16718D01*
G37*
G36*
X59365Y-16153D02*
X59364Y-16215D01*
X59347Y-16294D01*
X59325Y-16342D01*
X59278Y-16408D01*
X59241Y-16444D01*
X59172Y-16488D01*
X59124Y-16507D01*
X59043Y-16521D01*
X58992Y-16520D01*
X58911Y-16502D01*
X58865Y-16482D01*
X58797Y-16435D01*
X58762Y-16398D01*
X58717Y-16329D01*
X58698Y-16282D01*
X58683Y-16200D01*
X58684Y-16150D01*
X58701Y-16068D01*
X58721Y-16022D01*
X58768Y-15953D01*
X58804Y-15918D01*
X58874Y-15872D01*
X58919Y-15854D01*
X59002Y-15838D01*
X59051Y-15839D01*
X59134Y-15856D01*
X59179Y-15874D01*
X59250Y-15922D01*
X59284Y-15956D01*
X59331Y-16027D01*
X59349Y-16072D01*
X59365Y-16153D01*
X59365Y-16153D01*
G37*
G36*
X59366Y-17521D02*
X58683Y-17521D01*
X58683Y-16838D01*
X59366Y-16838D01*
X59366Y-17521D01*
X59366Y-17521D01*
G37*
G36*
X60778Y-11975D02*
X60775Y-12147D01*
X60736Y-12319D01*
X60676Y-12454D01*
X60574Y-12598D01*
X60467Y-12700D01*
X60318Y-12795D01*
X60180Y-12848D01*
X60006Y-12879D01*
X59859Y-12876D01*
X59685Y-12838D01*
X59551Y-12779D01*
X59404Y-12678D01*
X59303Y-12572D01*
X59206Y-12422D01*
X59152Y-12287D01*
X59120Y-12111D01*
X59122Y-11965D01*
X59159Y-11790D01*
X59217Y-11656D01*
X59318Y-11508D01*
X59422Y-11407D01*
X59572Y-11308D01*
X59706Y-11254D01*
X59883Y-11220D01*
X60027Y-11221D01*
X60204Y-11258D01*
X60337Y-11314D01*
X60487Y-11415D01*
X60588Y-11517D01*
X60688Y-11667D01*
X60743Y-11800D01*
X60778Y-11975D01*
X60778Y-11975D01*
G37*
G36*
X60778Y-19875D02*
X60775Y-20047D01*
X60736Y-20219D01*
X60676Y-20354D01*
X60574Y-20498D01*
X60467Y-20600D01*
X60318Y-20695D01*
X60180Y-20748D01*
X60006Y-20779D01*
X59859Y-20776D01*
X59685Y-20738D01*
X59551Y-20679D01*
X59404Y-20578D01*
X59303Y-20472D01*
X59206Y-20322D01*
X59152Y-20187D01*
X59120Y-20011D01*
X59122Y-19865D01*
X59159Y-19690D01*
X59217Y-19556D01*
X59318Y-19408D01*
X59422Y-19307D01*
X59572Y-19208D01*
X59706Y-19154D01*
X59883Y-19120D01*
X60027Y-19121D01*
X60204Y-19158D01*
X60337Y-19214D01*
X60487Y-19315D01*
X60588Y-19417D01*
X60688Y-19567D01*
X60743Y-19700D01*
X60778Y-19875D01*
X60778Y-19875D01*
G37*
M02*
