M48
;DRILL file {Pcbnew (2013-jul-07)-stable} date Ср. 13 мая 2015 13:25:21
;FORMAT={-:-/ absolute / metric / decimal}
FMAT,2
METRIC,TZ
T1C0.400
T2C0.800
T3C1.100
T4C2.000
%
G90
G05
M71
T1
X107.95Y-44.45
X114.071Y-39.624
X115.113Y-44.856
X118.11Y-50.165
X121.92Y-36.83
X121.92Y-39.37
X123.19Y-38.1
X124.46Y-36.83
X125.73Y-40.64
X125.768Y-31.242
X142.723Y-49.911
T2
X111.92Y-40.64
X131.92Y-40.64
T3
X109.22Y-31.75
X109.22Y-34.29
X109.22Y-36.83
X109.22Y-39.37
X109.22Y-41.91
X109.22Y-46.99
X109.22Y-49.53
X111.76Y-46.99
X111.76Y-49.53
X141.643Y-29.947
X141.643Y-32.487
X141.643Y-35.027
X141.643Y-37.567
X141.783Y-42.532
X144.183Y-29.947
X144.183Y-32.487
X144.183Y-35.027
X144.183Y-37.567
X144.323Y-42.532
X149.923Y-41.097
X149.923Y-43.637
T4
X113.665Y-30.48
X152.273Y-30.607
X152.273Y-50.673
T0
M30
