G04 (created by PCBNEW (2013-jul-07)-stable) date Ср. 13 мая 2015 13:25:06*
%MOIN*%
G04 Gerber Fmt 3.4, Leading zero omitted, Abs format*
%FSLAX34Y34*%
G01*
G70*
G90*
G04 APERTURE LIST*
%ADD10C,0.00590551*%
%ADD11R,0.055X0.035*%
%ADD12R,0.035X0.055*%
%ADD13R,0.06X0.06*%
%ADD14C,0.06*%
%ADD15R,0.0315X0.0098*%
%ADD16R,0.0315X0.0099*%
%ADD17R,0.0098X0.0315*%
%ADD18R,0.0099X0.0315*%
%ADD19C,0.0472441*%
%ADD20C,0.15748*%
%ADD21R,0.0551X0.0236*%
%ADD22C,0.0354331*%
%ADD23C,0.00984252*%
%ADD24C,0.023622*%
%ADD25C,0.01*%
G04 APERTURE END LIST*
G54D10*
G54D11*
X49000Y-18125D03*
X49000Y-18875D03*
X48000Y-18125D03*
X48000Y-18875D03*
X45500Y-16375D03*
X45500Y-15625D03*
G54D12*
X49625Y-13000D03*
X50375Y-13000D03*
X46125Y-17500D03*
X46875Y-17500D03*
G54D11*
X46500Y-15625D03*
X46500Y-16375D03*
G54D12*
X43125Y-17500D03*
X43875Y-17500D03*
X45875Y-19500D03*
X45125Y-19500D03*
G54D13*
X43000Y-12500D03*
G54D14*
X43000Y-13500D03*
X43000Y-14500D03*
X43000Y-15500D03*
X43000Y-16500D03*
G54D13*
X43000Y-18500D03*
G54D14*
X44000Y-18500D03*
G54D13*
X43000Y-19500D03*
G54D14*
X44000Y-19500D03*
G54D13*
X59025Y-17180D03*
G54D14*
X59025Y-16180D03*
G54D13*
X55820Y-16745D03*
G54D14*
X56820Y-16745D03*
G54D15*
X47387Y-16582D03*
G54D16*
X47387Y-16385D03*
X47387Y-16188D03*
X47387Y-15991D03*
G54D15*
X47387Y-15795D03*
X47387Y-15598D03*
X47387Y-15402D03*
X47387Y-15205D03*
G54D16*
X47387Y-15009D03*
X47387Y-14812D03*
X47387Y-14615D03*
G54D15*
X47387Y-14418D03*
G54D17*
X47918Y-13887D03*
G54D18*
X48115Y-13887D03*
X48312Y-13887D03*
X48509Y-13887D03*
G54D17*
X48705Y-13887D03*
X48902Y-13887D03*
X49098Y-13887D03*
X49295Y-13887D03*
G54D18*
X49491Y-13887D03*
X49688Y-13887D03*
X49885Y-13887D03*
G54D17*
X50082Y-13887D03*
G54D15*
X50613Y-16582D03*
G54D16*
X50613Y-16385D03*
X50613Y-16188D03*
X50613Y-15991D03*
G54D15*
X50613Y-15795D03*
X50613Y-15598D03*
X50613Y-15402D03*
X50613Y-15205D03*
G54D16*
X50613Y-15009D03*
X50613Y-14812D03*
X50613Y-14615D03*
G54D15*
X50613Y-14418D03*
G54D17*
X47918Y-17113D03*
G54D18*
X48115Y-17113D03*
X48312Y-17113D03*
X48509Y-17113D03*
G54D17*
X48705Y-17113D03*
X48902Y-17113D03*
X49098Y-17113D03*
X49295Y-17113D03*
G54D18*
X49491Y-17113D03*
X49688Y-17113D03*
X49885Y-17113D03*
G54D17*
X50082Y-17113D03*
G54D19*
X44062Y-16000D03*
X51937Y-16000D03*
G54D20*
X59950Y-12050D03*
X59950Y-19950D03*
X44750Y-12000D03*
G54D21*
X57045Y-18135D03*
X54945Y-18135D03*
X57045Y-18635D03*
X57045Y-19135D03*
X57045Y-19635D03*
X54945Y-18635D03*
X54945Y-19135D03*
X54945Y-19635D03*
G54D11*
X53260Y-19290D03*
X53260Y-18540D03*
X54050Y-18550D03*
X54050Y-19300D03*
G54D13*
X56765Y-14790D03*
G54D14*
X55765Y-14790D03*
X56765Y-13790D03*
X55765Y-13790D03*
X56765Y-12790D03*
X55765Y-12790D03*
X56765Y-11790D03*
X55765Y-11790D03*
G54D22*
X56190Y-19650D03*
X49500Y-16000D03*
X46500Y-19750D03*
X42500Y-17500D03*
X48500Y-15000D03*
X48000Y-14500D03*
X49000Y-14500D03*
X48000Y-15500D03*
X45320Y-17660D03*
X49515Y-12300D03*
X44910Y-15600D03*
G54D23*
X50613Y-16385D02*
X51135Y-16385D01*
X56115Y-15440D02*
X56765Y-14790D01*
X54830Y-15440D02*
X56115Y-15440D01*
X53660Y-16610D02*
X54830Y-15440D01*
X51360Y-16610D02*
X53660Y-16610D01*
X51135Y-16385D02*
X51360Y-16610D01*
X50613Y-16188D02*
X51438Y-16188D01*
X55218Y-14790D02*
X55765Y-14790D01*
X53583Y-16424D02*
X55218Y-14790D01*
X51675Y-16424D02*
X53583Y-16424D01*
X51438Y-16188D02*
X51675Y-16424D01*
X50613Y-15991D02*
X51394Y-15991D01*
X56255Y-14300D02*
X56765Y-13790D01*
X55446Y-14300D02*
X56255Y-14300D01*
X54373Y-15373D02*
X55446Y-14300D01*
X52011Y-15373D02*
X54373Y-15373D01*
X51394Y-15991D02*
X52011Y-15373D01*
X50613Y-15795D02*
X51328Y-15795D01*
X55694Y-13790D02*
X55765Y-13790D01*
X54296Y-15188D02*
X55694Y-13790D01*
X51935Y-15188D02*
X54296Y-15188D01*
X51328Y-15795D02*
X51935Y-15188D01*
X50613Y-15598D02*
X51263Y-15598D01*
X56250Y-13305D02*
X56765Y-12790D01*
X55315Y-13305D02*
X56250Y-13305D01*
X53616Y-15003D02*
X55315Y-13305D01*
X51858Y-15003D02*
X53616Y-15003D01*
X51263Y-15598D02*
X51858Y-15003D01*
X50613Y-15402D02*
X51197Y-15402D01*
X55568Y-12790D02*
X55765Y-12790D01*
X53540Y-14818D02*
X55568Y-12790D01*
X51781Y-14818D02*
X53540Y-14818D01*
X51197Y-15402D02*
X51781Y-14818D01*
G54D24*
X57045Y-18135D02*
X56810Y-18135D01*
X55820Y-17145D02*
X55820Y-16745D01*
X56810Y-18135D02*
X55820Y-17145D01*
X57045Y-19635D02*
X57735Y-19635D01*
X57940Y-17865D02*
X56820Y-16745D01*
X57940Y-19430D02*
X57940Y-17865D01*
X57735Y-19635D02*
X57940Y-19430D01*
X56175Y-19635D02*
X55575Y-19635D01*
X56190Y-19650D02*
X56175Y-19635D01*
X54945Y-19635D02*
X55575Y-19635D01*
X55455Y-18135D02*
X54945Y-18135D01*
X55645Y-18325D02*
X55455Y-18135D01*
X55645Y-19565D02*
X55645Y-18325D01*
X55575Y-19635D02*
X55645Y-19565D01*
X54945Y-18135D02*
X54945Y-18635D01*
X54945Y-18635D02*
X54135Y-18635D01*
X54135Y-18635D02*
X54050Y-18550D01*
X53260Y-18540D02*
X54040Y-18540D01*
X54040Y-18540D02*
X54050Y-18550D01*
G54D23*
X45875Y-19500D02*
X46250Y-19500D01*
X46250Y-19500D02*
X46500Y-19750D01*
X43125Y-17500D02*
X42500Y-17500D01*
X48055Y-15805D02*
X48055Y-15555D01*
X48500Y-15000D02*
X48680Y-15180D01*
X49000Y-14500D02*
X48000Y-14500D01*
X48055Y-15555D02*
X48000Y-15500D01*
X46125Y-17500D02*
X45480Y-17500D01*
X45480Y-17500D02*
X45320Y-17660D01*
X49491Y-13887D02*
X49491Y-14369D01*
X49491Y-14369D02*
X48680Y-15180D01*
X47869Y-15991D02*
X47387Y-15991D01*
X48055Y-15805D02*
X47869Y-15991D01*
X49625Y-12410D02*
X49625Y-13000D01*
X49515Y-12300D02*
X49625Y-12410D01*
X44935Y-15625D02*
X45500Y-15625D01*
X44910Y-15600D02*
X44935Y-15625D01*
X49491Y-13887D02*
X49491Y-13134D01*
X49491Y-13134D02*
X49625Y-13000D01*
X46500Y-15625D02*
X45500Y-15625D01*
X47387Y-15991D02*
X46866Y-15991D01*
X46866Y-15991D02*
X46500Y-15625D01*
X57045Y-18635D02*
X56282Y-18635D01*
X51505Y-17474D02*
X50613Y-16582D01*
X55434Y-17474D02*
X51505Y-17474D01*
X56097Y-18137D02*
X55434Y-17474D01*
X56097Y-18450D02*
X56097Y-18137D01*
X56282Y-18635D02*
X56097Y-18450D01*
X57045Y-19135D02*
X56125Y-19135D01*
X50629Y-17660D02*
X50082Y-17113D01*
X55358Y-17660D02*
X50629Y-17660D01*
X55912Y-18214D02*
X55358Y-17660D01*
X55912Y-18922D02*
X55912Y-18214D01*
X56125Y-19135D02*
X55912Y-18922D01*
X43000Y-16500D02*
X43000Y-16380D01*
X44765Y-14615D02*
X47387Y-14615D01*
X43000Y-16380D02*
X44765Y-14615D01*
X44000Y-18500D02*
X46490Y-18500D01*
X48370Y-18495D02*
X48000Y-18125D01*
X49355Y-18495D02*
X48370Y-18495D01*
X49510Y-18650D02*
X49355Y-18495D01*
X49510Y-19180D02*
X49510Y-18650D01*
X49350Y-19340D02*
X49510Y-19180D01*
X47330Y-19340D02*
X49350Y-19340D01*
X46490Y-18500D02*
X47330Y-19340D01*
X43875Y-17500D02*
X43875Y-18375D01*
X43875Y-18375D02*
X44000Y-18500D01*
X48115Y-17113D02*
X48115Y-18010D01*
X48115Y-18010D02*
X48000Y-18125D01*
X47387Y-14418D02*
X44642Y-14418D01*
X43560Y-15500D02*
X43000Y-15500D01*
X44642Y-14418D02*
X43560Y-15500D01*
X45125Y-19500D02*
X45125Y-19105D01*
X49430Y-18125D02*
X49000Y-18125D01*
X49775Y-18470D02*
X49430Y-18125D01*
X49775Y-19335D02*
X49775Y-18470D01*
X49475Y-19635D02*
X49775Y-19335D01*
X47180Y-19635D02*
X49475Y-19635D01*
X46370Y-18825D02*
X47180Y-19635D01*
X45405Y-18825D02*
X46370Y-18825D01*
X45125Y-19105D02*
X45405Y-18825D01*
X45125Y-19500D02*
X44000Y-19500D01*
X49098Y-17113D02*
X49098Y-18027D01*
X49098Y-18027D02*
X49000Y-18125D01*
X49295Y-13887D02*
X49295Y-13495D01*
X43400Y-12500D02*
X43000Y-12500D01*
X44450Y-13550D02*
X43400Y-12500D01*
X45350Y-13550D02*
X44450Y-13550D01*
X45950Y-12950D02*
X45350Y-13550D01*
X48750Y-12950D02*
X45950Y-12950D01*
X49295Y-13495D02*
X48750Y-12950D01*
X43000Y-13500D02*
X43800Y-13500D01*
X49098Y-13648D02*
X49098Y-13887D01*
X48650Y-13200D02*
X49098Y-13648D01*
X46450Y-13200D02*
X48650Y-13200D01*
X45750Y-13900D02*
X46450Y-13200D01*
X44200Y-13900D02*
X45750Y-13900D01*
X43800Y-13500D02*
X44200Y-13900D01*
G54D24*
X59025Y-17180D02*
X59025Y-18365D01*
X54050Y-19990D02*
X54050Y-19300D01*
X54280Y-20220D02*
X54050Y-19990D01*
X57940Y-20220D02*
X54280Y-20220D01*
X58440Y-19720D02*
X57940Y-20220D01*
X58440Y-18950D02*
X58440Y-19720D01*
X59025Y-18365D02*
X58440Y-18950D01*
X54945Y-19135D02*
X54215Y-19135D01*
X54215Y-19135D02*
X54050Y-19300D01*
X53260Y-19290D02*
X54040Y-19290D01*
X54040Y-19290D02*
X54050Y-19300D01*
G54D23*
X47387Y-16582D02*
X47758Y-16582D01*
X47758Y-16582D02*
X47955Y-16385D01*
X47387Y-16188D02*
X47758Y-16188D01*
X47758Y-16188D02*
X47955Y-16385D01*
X46875Y-17500D02*
X46875Y-18445D01*
X47305Y-18875D02*
X48000Y-18875D01*
X46875Y-18445D02*
X47305Y-18875D01*
X49000Y-18875D02*
X48000Y-18875D01*
X44062Y-16000D02*
X44485Y-16000D01*
X44860Y-16375D02*
X45500Y-16375D01*
X44485Y-16000D02*
X44860Y-16375D01*
X49688Y-13887D02*
X49688Y-14862D01*
X48165Y-16385D02*
X47955Y-16385D01*
X49688Y-14862D02*
X48165Y-16385D01*
X47955Y-16385D02*
X47387Y-16385D01*
X47918Y-17113D02*
X47387Y-16582D01*
X47918Y-17113D02*
X47262Y-17113D01*
X47262Y-17113D02*
X46875Y-17500D01*
X49688Y-13887D02*
X49688Y-13627D01*
X50375Y-13390D02*
X50375Y-13000D01*
X50270Y-13495D02*
X50375Y-13390D01*
X49820Y-13495D02*
X50270Y-13495D01*
X49688Y-13627D02*
X49820Y-13495D01*
X46500Y-16375D02*
X45500Y-16375D01*
X47387Y-16385D02*
X46510Y-16385D01*
X46510Y-16385D02*
X46500Y-16375D01*
G54D10*
G36*
X46979Y-15108D02*
X46979Y-15205D01*
X46979Y-15300D01*
X46916Y-15238D01*
X46824Y-15200D01*
X46725Y-15199D01*
X46612Y-15200D01*
X46550Y-15262D01*
X46550Y-15575D01*
X46557Y-15575D01*
X46557Y-15675D01*
X46550Y-15675D01*
X46550Y-15682D01*
X46450Y-15682D01*
X46450Y-15675D01*
X46450Y-15575D01*
X46450Y-15262D01*
X46387Y-15200D01*
X46274Y-15199D01*
X46175Y-15200D01*
X46083Y-15238D01*
X46012Y-15308D01*
X46000Y-15339D01*
X45987Y-15308D01*
X45916Y-15238D01*
X45824Y-15200D01*
X45725Y-15199D01*
X45612Y-15200D01*
X45550Y-15262D01*
X45550Y-15575D01*
X45962Y-15575D01*
X46000Y-15537D01*
X46037Y-15575D01*
X46450Y-15575D01*
X46450Y-15675D01*
X46037Y-15675D01*
X46000Y-15712D01*
X45962Y-15675D01*
X45550Y-15675D01*
X45550Y-15682D01*
X45450Y-15682D01*
X45450Y-15675D01*
X45450Y-15575D01*
X45450Y-15262D01*
X45387Y-15200D01*
X45274Y-15199D01*
X45175Y-15200D01*
X45083Y-15238D01*
X45012Y-15308D01*
X44974Y-15400D01*
X44975Y-15512D01*
X45037Y-15575D01*
X45450Y-15575D01*
X45450Y-15675D01*
X45037Y-15675D01*
X44975Y-15737D01*
X44974Y-15849D01*
X45012Y-15941D01*
X45071Y-16000D01*
X45013Y-16058D01*
X45005Y-16075D01*
X44983Y-16075D01*
X44696Y-15788D01*
X44599Y-15723D01*
X44485Y-15700D01*
X44451Y-15700D01*
X44338Y-15588D01*
X44251Y-15551D01*
X44888Y-14914D01*
X46979Y-14914D01*
X46979Y-15009D01*
X46979Y-15108D01*
X46979Y-15108D01*
X46979Y-15108D01*
G37*
G54D25*
X46979Y-15108D02*
X46979Y-15205D01*
X46979Y-15300D01*
X46916Y-15238D01*
X46824Y-15200D01*
X46725Y-15199D01*
X46612Y-15200D01*
X46550Y-15262D01*
X46550Y-15575D01*
X46557Y-15575D01*
X46557Y-15675D01*
X46550Y-15675D01*
X46550Y-15682D01*
X46450Y-15682D01*
X46450Y-15675D01*
X46450Y-15575D01*
X46450Y-15262D01*
X46387Y-15200D01*
X46274Y-15199D01*
X46175Y-15200D01*
X46083Y-15238D01*
X46012Y-15308D01*
X46000Y-15339D01*
X45987Y-15308D01*
X45916Y-15238D01*
X45824Y-15200D01*
X45725Y-15199D01*
X45612Y-15200D01*
X45550Y-15262D01*
X45550Y-15575D01*
X45962Y-15575D01*
X46000Y-15537D01*
X46037Y-15575D01*
X46450Y-15575D01*
X46450Y-15675D01*
X46037Y-15675D01*
X46000Y-15712D01*
X45962Y-15675D01*
X45550Y-15675D01*
X45550Y-15682D01*
X45450Y-15682D01*
X45450Y-15675D01*
X45450Y-15575D01*
X45450Y-15262D01*
X45387Y-15200D01*
X45274Y-15199D01*
X45175Y-15200D01*
X45083Y-15238D01*
X45012Y-15308D01*
X44974Y-15400D01*
X44975Y-15512D01*
X45037Y-15575D01*
X45450Y-15575D01*
X45450Y-15675D01*
X45037Y-15675D01*
X44975Y-15737D01*
X44974Y-15849D01*
X45012Y-15941D01*
X45071Y-16000D01*
X45013Y-16058D01*
X45005Y-16075D01*
X44983Y-16075D01*
X44696Y-15788D01*
X44599Y-15723D01*
X44485Y-15700D01*
X44451Y-15700D01*
X44338Y-15588D01*
X44251Y-15551D01*
X44888Y-14914D01*
X46979Y-14914D01*
X46979Y-15009D01*
X46979Y-15108D01*
X46979Y-15108D01*
G54D10*
G36*
X47118Y-16855D02*
X47115Y-16858D01*
X47050Y-16901D01*
X46976Y-16974D01*
X46650Y-16974D01*
X46558Y-17012D01*
X46500Y-17071D01*
X46441Y-17012D01*
X46349Y-16974D01*
X46237Y-16975D01*
X46175Y-17037D01*
X46175Y-17450D01*
X46182Y-17450D01*
X46182Y-17550D01*
X46175Y-17550D01*
X46175Y-17962D01*
X46237Y-18025D01*
X46349Y-18025D01*
X46441Y-17987D01*
X46500Y-17928D01*
X46558Y-17986D01*
X46575Y-17994D01*
X46575Y-18217D01*
X46490Y-18200D01*
X46075Y-18200D01*
X46075Y-17962D01*
X46075Y-17550D01*
X46075Y-17450D01*
X46075Y-17037D01*
X46012Y-16975D01*
X45900Y-16974D01*
X45808Y-17012D01*
X45738Y-17083D01*
X45700Y-17175D01*
X45699Y-17274D01*
X45700Y-17387D01*
X45762Y-17450D01*
X46075Y-17450D01*
X46075Y-17550D01*
X45762Y-17550D01*
X45700Y-17612D01*
X45699Y-17725D01*
X45700Y-17824D01*
X45738Y-17916D01*
X45808Y-17987D01*
X45900Y-18025D01*
X46012Y-18025D01*
X46075Y-17962D01*
X46075Y-18200D01*
X44471Y-18200D01*
X44466Y-18188D01*
X44311Y-18034D01*
X44193Y-17984D01*
X44261Y-17916D01*
X44299Y-17824D01*
X44300Y-17725D01*
X44300Y-17175D01*
X44262Y-17083D01*
X44191Y-17013D01*
X44099Y-16975D01*
X44000Y-16974D01*
X43650Y-16974D01*
X43558Y-17012D01*
X43500Y-17071D01*
X43441Y-17012D01*
X43349Y-16974D01*
X43290Y-16974D01*
X43311Y-16966D01*
X43465Y-16811D01*
X43549Y-16609D01*
X43550Y-16391D01*
X43509Y-16293D01*
X43614Y-16188D01*
X43650Y-16275D01*
X43787Y-16411D01*
X43965Y-16486D01*
X44159Y-16486D01*
X44338Y-16412D01*
X44406Y-16344D01*
X44648Y-16586D01*
X44745Y-16651D01*
X44745Y-16651D01*
X44764Y-16655D01*
X44860Y-16674D01*
X45005Y-16674D01*
X45012Y-16691D01*
X45083Y-16761D01*
X45175Y-16799D01*
X45274Y-16800D01*
X45824Y-16800D01*
X45916Y-16762D01*
X45986Y-16691D01*
X45994Y-16674D01*
X46005Y-16674D01*
X46012Y-16691D01*
X46083Y-16761D01*
X46175Y-16799D01*
X46274Y-16800D01*
X46824Y-16800D01*
X46916Y-16762D01*
X46984Y-16693D01*
X47017Y-16772D01*
X47087Y-16842D01*
X47118Y-16855D01*
X47118Y-16855D01*
G37*
G54D25*
X47118Y-16855D02*
X47115Y-16858D01*
X47050Y-16901D01*
X46976Y-16974D01*
X46650Y-16974D01*
X46558Y-17012D01*
X46500Y-17071D01*
X46441Y-17012D01*
X46349Y-16974D01*
X46237Y-16975D01*
X46175Y-17037D01*
X46175Y-17450D01*
X46182Y-17450D01*
X46182Y-17550D01*
X46175Y-17550D01*
X46175Y-17962D01*
X46237Y-18025D01*
X46349Y-18025D01*
X46441Y-17987D01*
X46500Y-17928D01*
X46558Y-17986D01*
X46575Y-17994D01*
X46575Y-18217D01*
X46490Y-18200D01*
X46075Y-18200D01*
X46075Y-17962D01*
X46075Y-17550D01*
X46075Y-17450D01*
X46075Y-17037D01*
X46012Y-16975D01*
X45900Y-16974D01*
X45808Y-17012D01*
X45738Y-17083D01*
X45700Y-17175D01*
X45699Y-17274D01*
X45700Y-17387D01*
X45762Y-17450D01*
X46075Y-17450D01*
X46075Y-17550D01*
X45762Y-17550D01*
X45700Y-17612D01*
X45699Y-17725D01*
X45700Y-17824D01*
X45738Y-17916D01*
X45808Y-17987D01*
X45900Y-18025D01*
X46012Y-18025D01*
X46075Y-17962D01*
X46075Y-18200D01*
X44471Y-18200D01*
X44466Y-18188D01*
X44311Y-18034D01*
X44193Y-17984D01*
X44261Y-17916D01*
X44299Y-17824D01*
X44300Y-17725D01*
X44300Y-17175D01*
X44262Y-17083D01*
X44191Y-17013D01*
X44099Y-16975D01*
X44000Y-16974D01*
X43650Y-16974D01*
X43558Y-17012D01*
X43500Y-17071D01*
X43441Y-17012D01*
X43349Y-16974D01*
X43290Y-16974D01*
X43311Y-16966D01*
X43465Y-16811D01*
X43549Y-16609D01*
X43550Y-16391D01*
X43509Y-16293D01*
X43614Y-16188D01*
X43650Y-16275D01*
X43787Y-16411D01*
X43965Y-16486D01*
X44159Y-16486D01*
X44338Y-16412D01*
X44406Y-16344D01*
X44648Y-16586D01*
X44745Y-16651D01*
X44745Y-16651D01*
X44764Y-16655D01*
X44860Y-16674D01*
X45005Y-16674D01*
X45012Y-16691D01*
X45083Y-16761D01*
X45175Y-16799D01*
X45274Y-16800D01*
X45824Y-16800D01*
X45916Y-16762D01*
X45986Y-16691D01*
X45994Y-16674D01*
X46005Y-16674D01*
X46012Y-16691D01*
X46083Y-16761D01*
X46175Y-16799D01*
X46274Y-16800D01*
X46824Y-16800D01*
X46916Y-16762D01*
X46984Y-16693D01*
X47017Y-16772D01*
X47087Y-16842D01*
X47118Y-16855D01*
G54D10*
G36*
X49388Y-14738D02*
X48060Y-16066D01*
X47969Y-15976D01*
X47872Y-15911D01*
X47794Y-15896D01*
X47794Y-15892D01*
X47794Y-15794D01*
X47794Y-15696D01*
X47794Y-15696D01*
X47794Y-15597D01*
X47794Y-15499D01*
X47794Y-15499D01*
X47794Y-15401D01*
X47794Y-15303D01*
X47794Y-15303D01*
X47794Y-15204D01*
X47794Y-15106D01*
X47794Y-15106D01*
X47794Y-15008D01*
X47794Y-14909D01*
X47794Y-14909D01*
X47794Y-14811D01*
X47794Y-14712D01*
X47794Y-14712D01*
X47794Y-14614D01*
X47794Y-14515D01*
X47794Y-14515D01*
X47794Y-14417D01*
X47794Y-14319D01*
X47776Y-14276D01*
X47819Y-14294D01*
X47918Y-14294D01*
X48016Y-14294D01*
X48016Y-14294D01*
X48115Y-14294D01*
X48214Y-14294D01*
X48214Y-14294D01*
X48312Y-14294D01*
X48411Y-14294D01*
X48411Y-14294D01*
X48509Y-14294D01*
X48608Y-14294D01*
X48608Y-14294D01*
X48705Y-14294D01*
X48803Y-14294D01*
X48803Y-14294D01*
X48902Y-14294D01*
X49000Y-14294D01*
X49000Y-14294D01*
X49098Y-14294D01*
X49196Y-14294D01*
X49196Y-14294D01*
X49295Y-14294D01*
X49388Y-14294D01*
X49388Y-14738D01*
X49388Y-14738D01*
G37*
G54D25*
X49388Y-14738D02*
X48060Y-16066D01*
X47969Y-15976D01*
X47872Y-15911D01*
X47794Y-15896D01*
X47794Y-15892D01*
X47794Y-15794D01*
X47794Y-15696D01*
X47794Y-15696D01*
X47794Y-15597D01*
X47794Y-15499D01*
X47794Y-15499D01*
X47794Y-15401D01*
X47794Y-15303D01*
X47794Y-15303D01*
X47794Y-15204D01*
X47794Y-15106D01*
X47794Y-15106D01*
X47794Y-15008D01*
X47794Y-14909D01*
X47794Y-14909D01*
X47794Y-14811D01*
X47794Y-14712D01*
X47794Y-14712D01*
X47794Y-14614D01*
X47794Y-14515D01*
X47794Y-14515D01*
X47794Y-14417D01*
X47794Y-14319D01*
X47776Y-14276D01*
X47819Y-14294D01*
X47918Y-14294D01*
X48016Y-14294D01*
X48016Y-14294D01*
X48115Y-14294D01*
X48214Y-14294D01*
X48214Y-14294D01*
X48312Y-14294D01*
X48411Y-14294D01*
X48411Y-14294D01*
X48509Y-14294D01*
X48608Y-14294D01*
X48608Y-14294D01*
X48705Y-14294D01*
X48803Y-14294D01*
X48803Y-14294D01*
X48902Y-14294D01*
X49000Y-14294D01*
X49000Y-14294D01*
X49098Y-14294D01*
X49196Y-14294D01*
X49196Y-14294D01*
X49295Y-14294D01*
X49388Y-14294D01*
X49388Y-14738D01*
G54D10*
G36*
X50223Y-16723D02*
X50180Y-16705D01*
X50081Y-16705D01*
X49983Y-16705D01*
X49983Y-16705D01*
X49884Y-16705D01*
X49785Y-16705D01*
X49785Y-16705D01*
X49687Y-16705D01*
X49588Y-16705D01*
X49588Y-16705D01*
X49490Y-16705D01*
X49391Y-16705D01*
X49391Y-16705D01*
X49294Y-16705D01*
X49196Y-16705D01*
X49196Y-16705D01*
X49097Y-16705D01*
X48999Y-16705D01*
X48999Y-16705D01*
X48901Y-16705D01*
X48803Y-16705D01*
X48803Y-16705D01*
X48704Y-16705D01*
X48606Y-16705D01*
X48606Y-16705D01*
X48508Y-16705D01*
X48409Y-16705D01*
X48409Y-16705D01*
X48311Y-16705D01*
X48212Y-16705D01*
X48212Y-16705D01*
X48114Y-16705D01*
X48057Y-16705D01*
X48078Y-16684D01*
X48165Y-16684D01*
X48279Y-16661D01*
X48376Y-16596D01*
X49899Y-15073D01*
X49964Y-14976D01*
X49987Y-14862D01*
X49987Y-14294D01*
X50082Y-14294D01*
X50180Y-14294D01*
X50223Y-14276D01*
X50205Y-14319D01*
X50205Y-14418D01*
X50205Y-14516D01*
X50205Y-14516D01*
X50205Y-14615D01*
X50205Y-14714D01*
X50205Y-14714D01*
X50205Y-14812D01*
X50205Y-14911D01*
X50205Y-14911D01*
X50205Y-15009D01*
X50205Y-15108D01*
X50205Y-15108D01*
X50205Y-15205D01*
X50205Y-15303D01*
X50205Y-15303D01*
X50205Y-15402D01*
X50205Y-15500D01*
X50205Y-15500D01*
X50205Y-15598D01*
X50205Y-15696D01*
X50205Y-15696D01*
X50205Y-15795D01*
X50205Y-15893D01*
X50205Y-15893D01*
X50205Y-15991D01*
X50205Y-16090D01*
X50205Y-16090D01*
X50205Y-16188D01*
X50205Y-16287D01*
X50205Y-16287D01*
X50205Y-16385D01*
X50205Y-16484D01*
X50205Y-16484D01*
X50205Y-16582D01*
X50205Y-16680D01*
X50223Y-16723D01*
X50223Y-16723D01*
G37*
G54D25*
X50223Y-16723D02*
X50180Y-16705D01*
X50081Y-16705D01*
X49983Y-16705D01*
X49983Y-16705D01*
X49884Y-16705D01*
X49785Y-16705D01*
X49785Y-16705D01*
X49687Y-16705D01*
X49588Y-16705D01*
X49588Y-16705D01*
X49490Y-16705D01*
X49391Y-16705D01*
X49391Y-16705D01*
X49294Y-16705D01*
X49196Y-16705D01*
X49196Y-16705D01*
X49097Y-16705D01*
X48999Y-16705D01*
X48999Y-16705D01*
X48901Y-16705D01*
X48803Y-16705D01*
X48803Y-16705D01*
X48704Y-16705D01*
X48606Y-16705D01*
X48606Y-16705D01*
X48508Y-16705D01*
X48409Y-16705D01*
X48409Y-16705D01*
X48311Y-16705D01*
X48212Y-16705D01*
X48212Y-16705D01*
X48114Y-16705D01*
X48057Y-16705D01*
X48078Y-16684D01*
X48165Y-16684D01*
X48279Y-16661D01*
X48376Y-16596D01*
X49899Y-15073D01*
X49964Y-14976D01*
X49987Y-14862D01*
X49987Y-14294D01*
X50082Y-14294D01*
X50180Y-14294D01*
X50223Y-14276D01*
X50205Y-14319D01*
X50205Y-14418D01*
X50205Y-14516D01*
X50205Y-14516D01*
X50205Y-14615D01*
X50205Y-14714D01*
X50205Y-14714D01*
X50205Y-14812D01*
X50205Y-14911D01*
X50205Y-14911D01*
X50205Y-15009D01*
X50205Y-15108D01*
X50205Y-15108D01*
X50205Y-15205D01*
X50205Y-15303D01*
X50205Y-15303D01*
X50205Y-15402D01*
X50205Y-15500D01*
X50205Y-15500D01*
X50205Y-15598D01*
X50205Y-15696D01*
X50205Y-15696D01*
X50205Y-15795D01*
X50205Y-15893D01*
X50205Y-15893D01*
X50205Y-15991D01*
X50205Y-16090D01*
X50205Y-16090D01*
X50205Y-16188D01*
X50205Y-16287D01*
X50205Y-16287D01*
X50205Y-16385D01*
X50205Y-16484D01*
X50205Y-16484D01*
X50205Y-16582D01*
X50205Y-16680D01*
X50223Y-16723D01*
G54D10*
G36*
X52013Y-16005D02*
X51942Y-16076D01*
X51937Y-16070D01*
X51931Y-16076D01*
X51860Y-16005D01*
X51866Y-16000D01*
X51860Y-15994D01*
X51931Y-15923D01*
X51937Y-15929D01*
X51942Y-15923D01*
X52013Y-15994D01*
X52007Y-16000D01*
X52013Y-16005D01*
X52013Y-16005D01*
G37*
G54D25*
X52013Y-16005D02*
X51942Y-16076D01*
X51937Y-16070D01*
X51931Y-16076D01*
X51860Y-16005D01*
X51866Y-16000D01*
X51860Y-15994D01*
X51931Y-15923D01*
X51937Y-15929D01*
X51942Y-15923D01*
X52013Y-15994D01*
X52007Y-16000D01*
X52013Y-16005D01*
G54D10*
G36*
X52450Y-20720D02*
X46300Y-20720D01*
X46300Y-19725D01*
X46300Y-19612D01*
X46237Y-19550D01*
X45925Y-19550D01*
X45925Y-19962D01*
X45987Y-20025D01*
X46099Y-20025D01*
X46191Y-19987D01*
X46261Y-19916D01*
X46299Y-19824D01*
X46300Y-19725D01*
X46300Y-20720D01*
X42950Y-20720D01*
X42950Y-19987D01*
X42950Y-19550D01*
X42950Y-19450D01*
X42950Y-19012D01*
X42937Y-19000D01*
X42950Y-18987D01*
X42950Y-18550D01*
X42512Y-18550D01*
X42450Y-18612D01*
X42449Y-18750D01*
X42450Y-18849D01*
X42488Y-18941D01*
X42546Y-19000D01*
X42488Y-19058D01*
X42450Y-19150D01*
X42449Y-19249D01*
X42450Y-19387D01*
X42512Y-19450D01*
X42950Y-19450D01*
X42950Y-19550D01*
X42512Y-19550D01*
X42450Y-19612D01*
X42449Y-19750D01*
X42450Y-19849D01*
X42488Y-19941D01*
X42558Y-20012D01*
X42650Y-20050D01*
X42887Y-20050D01*
X42950Y-19987D01*
X42950Y-20720D01*
X42279Y-20720D01*
X42279Y-11279D01*
X44003Y-11279D01*
X43871Y-11411D01*
X43712Y-11792D01*
X43712Y-12205D01*
X43841Y-12518D01*
X43611Y-12288D01*
X43550Y-12247D01*
X43550Y-12150D01*
X43512Y-12058D01*
X43441Y-11988D01*
X43349Y-11950D01*
X43250Y-11949D01*
X42650Y-11949D01*
X42558Y-11987D01*
X42488Y-12058D01*
X42450Y-12150D01*
X42449Y-12249D01*
X42449Y-12849D01*
X42487Y-12941D01*
X42558Y-13011D01*
X42650Y-13049D01*
X42672Y-13049D01*
X42534Y-13188D01*
X42450Y-13390D01*
X42449Y-13608D01*
X42533Y-13811D01*
X42688Y-13965D01*
X42763Y-13997D01*
X42712Y-14018D01*
X42684Y-14114D01*
X43000Y-14429D01*
X43315Y-14114D01*
X43287Y-14018D01*
X43232Y-13999D01*
X43311Y-13966D01*
X43465Y-13811D01*
X43471Y-13799D01*
X43676Y-13799D01*
X43988Y-14111D01*
X43988Y-14111D01*
X44085Y-14176D01*
X44085Y-14176D01*
X44199Y-14199D01*
X44200Y-14199D01*
X44441Y-14199D01*
X44430Y-14206D01*
X43554Y-15082D01*
X43554Y-14581D01*
X43543Y-14363D01*
X43481Y-14212D01*
X43385Y-14184D01*
X43070Y-14500D01*
X43385Y-14815D01*
X43481Y-14787D01*
X43554Y-14581D01*
X43554Y-15082D01*
X43457Y-15179D01*
X43311Y-15034D01*
X43236Y-15002D01*
X43287Y-14981D01*
X43315Y-14885D01*
X43000Y-14570D01*
X42929Y-14641D01*
X42929Y-14500D01*
X42614Y-14184D01*
X42518Y-14212D01*
X42445Y-14418D01*
X42456Y-14636D01*
X42518Y-14787D01*
X42614Y-14815D01*
X42929Y-14500D01*
X42929Y-14641D01*
X42684Y-14885D01*
X42712Y-14981D01*
X42767Y-15000D01*
X42688Y-15033D01*
X42534Y-15188D01*
X42450Y-15390D01*
X42449Y-15608D01*
X42533Y-15811D01*
X42688Y-15965D01*
X42769Y-15999D01*
X42688Y-16033D01*
X42534Y-16188D01*
X42450Y-16390D01*
X42449Y-16608D01*
X42533Y-16811D01*
X42688Y-16965D01*
X42806Y-17015D01*
X42738Y-17083D01*
X42700Y-17175D01*
X42699Y-17274D01*
X42700Y-17387D01*
X42762Y-17450D01*
X43075Y-17450D01*
X43075Y-17442D01*
X43175Y-17442D01*
X43175Y-17450D01*
X43182Y-17450D01*
X43182Y-17550D01*
X43175Y-17550D01*
X43175Y-17557D01*
X43075Y-17557D01*
X43075Y-17550D01*
X42762Y-17550D01*
X42700Y-17612D01*
X42699Y-17725D01*
X42700Y-17824D01*
X42738Y-17916D01*
X42771Y-17949D01*
X42650Y-17949D01*
X42558Y-17987D01*
X42488Y-18058D01*
X42450Y-18150D01*
X42449Y-18249D01*
X42450Y-18387D01*
X42512Y-18450D01*
X42950Y-18450D01*
X42950Y-18442D01*
X43050Y-18442D01*
X43050Y-18450D01*
X43057Y-18450D01*
X43057Y-18550D01*
X43050Y-18550D01*
X43050Y-18987D01*
X43062Y-19000D01*
X43050Y-19012D01*
X43050Y-19450D01*
X43057Y-19450D01*
X43057Y-19550D01*
X43050Y-19550D01*
X43050Y-19987D01*
X43112Y-20050D01*
X43349Y-20050D01*
X43441Y-20012D01*
X43511Y-19941D01*
X43549Y-19849D01*
X43549Y-19827D01*
X43688Y-19965D01*
X43890Y-20049D01*
X44108Y-20050D01*
X44311Y-19966D01*
X44465Y-19811D01*
X44471Y-19799D01*
X44699Y-19799D01*
X44699Y-19824D01*
X44737Y-19916D01*
X44808Y-19986D01*
X44900Y-20024D01*
X44999Y-20025D01*
X45349Y-20025D01*
X45441Y-19987D01*
X45500Y-19928D01*
X45558Y-19987D01*
X45650Y-20025D01*
X45762Y-20025D01*
X45825Y-19962D01*
X45825Y-19550D01*
X45817Y-19550D01*
X45817Y-19450D01*
X45825Y-19450D01*
X45825Y-19442D01*
X45925Y-19442D01*
X45925Y-19450D01*
X46237Y-19450D01*
X46300Y-19387D01*
X46300Y-19274D01*
X46299Y-19178D01*
X46968Y-19846D01*
X46968Y-19846D01*
X47065Y-19911D01*
X47065Y-19911D01*
X47179Y-19934D01*
X47180Y-19934D01*
X49475Y-19934D01*
X49589Y-19911D01*
X49686Y-19846D01*
X49986Y-19546D01*
X49986Y-19546D01*
X50029Y-19481D01*
X50051Y-19449D01*
X50051Y-19449D01*
X50074Y-19335D01*
X50074Y-19335D01*
X50074Y-18470D01*
X50051Y-18355D01*
X50051Y-18355D01*
X49986Y-18258D01*
X49641Y-17913D01*
X49544Y-17848D01*
X49499Y-17839D01*
X49487Y-17808D01*
X49416Y-17738D01*
X49397Y-17730D01*
X49397Y-17520D01*
X49491Y-17520D01*
X49590Y-17520D01*
X49590Y-17520D01*
X49688Y-17520D01*
X49787Y-17520D01*
X49787Y-17520D01*
X49885Y-17520D01*
X49984Y-17520D01*
X49984Y-17520D01*
X50066Y-17520D01*
X50417Y-17871D01*
X50514Y-17936D01*
X50629Y-17959D01*
X52450Y-17959D01*
X52450Y-20720D01*
X52450Y-20720D01*
G37*
G54D25*
X52450Y-20720D02*
X46300Y-20720D01*
X46300Y-19725D01*
X46300Y-19612D01*
X46237Y-19550D01*
X45925Y-19550D01*
X45925Y-19962D01*
X45987Y-20025D01*
X46099Y-20025D01*
X46191Y-19987D01*
X46261Y-19916D01*
X46299Y-19824D01*
X46300Y-19725D01*
X46300Y-20720D01*
X42950Y-20720D01*
X42950Y-19987D01*
X42950Y-19550D01*
X42950Y-19450D01*
X42950Y-19012D01*
X42937Y-19000D01*
X42950Y-18987D01*
X42950Y-18550D01*
X42512Y-18550D01*
X42450Y-18612D01*
X42449Y-18750D01*
X42450Y-18849D01*
X42488Y-18941D01*
X42546Y-19000D01*
X42488Y-19058D01*
X42450Y-19150D01*
X42449Y-19249D01*
X42450Y-19387D01*
X42512Y-19450D01*
X42950Y-19450D01*
X42950Y-19550D01*
X42512Y-19550D01*
X42450Y-19612D01*
X42449Y-19750D01*
X42450Y-19849D01*
X42488Y-19941D01*
X42558Y-20012D01*
X42650Y-20050D01*
X42887Y-20050D01*
X42950Y-19987D01*
X42950Y-20720D01*
X42279Y-20720D01*
X42279Y-11279D01*
X44003Y-11279D01*
X43871Y-11411D01*
X43712Y-11792D01*
X43712Y-12205D01*
X43841Y-12518D01*
X43611Y-12288D01*
X43550Y-12247D01*
X43550Y-12150D01*
X43512Y-12058D01*
X43441Y-11988D01*
X43349Y-11950D01*
X43250Y-11949D01*
X42650Y-11949D01*
X42558Y-11987D01*
X42488Y-12058D01*
X42450Y-12150D01*
X42449Y-12249D01*
X42449Y-12849D01*
X42487Y-12941D01*
X42558Y-13011D01*
X42650Y-13049D01*
X42672Y-13049D01*
X42534Y-13188D01*
X42450Y-13390D01*
X42449Y-13608D01*
X42533Y-13811D01*
X42688Y-13965D01*
X42763Y-13997D01*
X42712Y-14018D01*
X42684Y-14114D01*
X43000Y-14429D01*
X43315Y-14114D01*
X43287Y-14018D01*
X43232Y-13999D01*
X43311Y-13966D01*
X43465Y-13811D01*
X43471Y-13799D01*
X43676Y-13799D01*
X43988Y-14111D01*
X43988Y-14111D01*
X44085Y-14176D01*
X44085Y-14176D01*
X44199Y-14199D01*
X44200Y-14199D01*
X44441Y-14199D01*
X44430Y-14206D01*
X43554Y-15082D01*
X43554Y-14581D01*
X43543Y-14363D01*
X43481Y-14212D01*
X43385Y-14184D01*
X43070Y-14500D01*
X43385Y-14815D01*
X43481Y-14787D01*
X43554Y-14581D01*
X43554Y-15082D01*
X43457Y-15179D01*
X43311Y-15034D01*
X43236Y-15002D01*
X43287Y-14981D01*
X43315Y-14885D01*
X43000Y-14570D01*
X42929Y-14641D01*
X42929Y-14500D01*
X42614Y-14184D01*
X42518Y-14212D01*
X42445Y-14418D01*
X42456Y-14636D01*
X42518Y-14787D01*
X42614Y-14815D01*
X42929Y-14500D01*
X42929Y-14641D01*
X42684Y-14885D01*
X42712Y-14981D01*
X42767Y-15000D01*
X42688Y-15033D01*
X42534Y-15188D01*
X42450Y-15390D01*
X42449Y-15608D01*
X42533Y-15811D01*
X42688Y-15965D01*
X42769Y-15999D01*
X42688Y-16033D01*
X42534Y-16188D01*
X42450Y-16390D01*
X42449Y-16608D01*
X42533Y-16811D01*
X42688Y-16965D01*
X42806Y-17015D01*
X42738Y-17083D01*
X42700Y-17175D01*
X42699Y-17274D01*
X42700Y-17387D01*
X42762Y-17450D01*
X43075Y-17450D01*
X43075Y-17442D01*
X43175Y-17442D01*
X43175Y-17450D01*
X43182Y-17450D01*
X43182Y-17550D01*
X43175Y-17550D01*
X43175Y-17557D01*
X43075Y-17557D01*
X43075Y-17550D01*
X42762Y-17550D01*
X42700Y-17612D01*
X42699Y-17725D01*
X42700Y-17824D01*
X42738Y-17916D01*
X42771Y-17949D01*
X42650Y-17949D01*
X42558Y-17987D01*
X42488Y-18058D01*
X42450Y-18150D01*
X42449Y-18249D01*
X42450Y-18387D01*
X42512Y-18450D01*
X42950Y-18450D01*
X42950Y-18442D01*
X43050Y-18442D01*
X43050Y-18450D01*
X43057Y-18450D01*
X43057Y-18550D01*
X43050Y-18550D01*
X43050Y-18987D01*
X43062Y-19000D01*
X43050Y-19012D01*
X43050Y-19450D01*
X43057Y-19450D01*
X43057Y-19550D01*
X43050Y-19550D01*
X43050Y-19987D01*
X43112Y-20050D01*
X43349Y-20050D01*
X43441Y-20012D01*
X43511Y-19941D01*
X43549Y-19849D01*
X43549Y-19827D01*
X43688Y-19965D01*
X43890Y-20049D01*
X44108Y-20050D01*
X44311Y-19966D01*
X44465Y-19811D01*
X44471Y-19799D01*
X44699Y-19799D01*
X44699Y-19824D01*
X44737Y-19916D01*
X44808Y-19986D01*
X44900Y-20024D01*
X44999Y-20025D01*
X45349Y-20025D01*
X45441Y-19987D01*
X45500Y-19928D01*
X45558Y-19987D01*
X45650Y-20025D01*
X45762Y-20025D01*
X45825Y-19962D01*
X45825Y-19550D01*
X45817Y-19550D01*
X45817Y-19450D01*
X45825Y-19450D01*
X45825Y-19442D01*
X45925Y-19442D01*
X45925Y-19450D01*
X46237Y-19450D01*
X46300Y-19387D01*
X46300Y-19274D01*
X46299Y-19178D01*
X46968Y-19846D01*
X46968Y-19846D01*
X47065Y-19911D01*
X47065Y-19911D01*
X47179Y-19934D01*
X47180Y-19934D01*
X49475Y-19934D01*
X49589Y-19911D01*
X49686Y-19846D01*
X49986Y-19546D01*
X49986Y-19546D01*
X50029Y-19481D01*
X50051Y-19449D01*
X50051Y-19449D01*
X50074Y-19335D01*
X50074Y-19335D01*
X50074Y-18470D01*
X50051Y-18355D01*
X50051Y-18355D01*
X49986Y-18258D01*
X49641Y-17913D01*
X49544Y-17848D01*
X49499Y-17839D01*
X49487Y-17808D01*
X49416Y-17738D01*
X49397Y-17730D01*
X49397Y-17520D01*
X49491Y-17520D01*
X49590Y-17520D01*
X49590Y-17520D01*
X49688Y-17520D01*
X49787Y-17520D01*
X49787Y-17520D01*
X49885Y-17520D01*
X49984Y-17520D01*
X49984Y-17520D01*
X50066Y-17520D01*
X50417Y-17871D01*
X50514Y-17936D01*
X50629Y-17959D01*
X52450Y-17959D01*
X52450Y-20720D01*
G54D10*
G36*
X60720Y-14950D02*
X57979Y-14950D01*
X57450Y-15479D01*
X57450Y-15950D01*
X57319Y-15950D01*
X57319Y-11871D01*
X57308Y-11653D01*
X57246Y-11502D01*
X57150Y-11474D01*
X56835Y-11790D01*
X57150Y-12105D01*
X57246Y-12077D01*
X57319Y-11871D01*
X57319Y-15950D01*
X54743Y-15950D01*
X54953Y-15739D01*
X56115Y-15739D01*
X56229Y-15716D01*
X56326Y-15651D01*
X56638Y-15340D01*
X57114Y-15340D01*
X57206Y-15302D01*
X57276Y-15231D01*
X57314Y-15139D01*
X57315Y-15040D01*
X57315Y-14440D01*
X57277Y-14348D01*
X57206Y-14278D01*
X57114Y-14240D01*
X57092Y-14240D01*
X57230Y-14101D01*
X57314Y-13899D01*
X57315Y-13681D01*
X57231Y-13478D01*
X57076Y-13324D01*
X56995Y-13290D01*
X57076Y-13256D01*
X57230Y-13101D01*
X57314Y-12899D01*
X57315Y-12681D01*
X57231Y-12478D01*
X57076Y-12324D01*
X57001Y-12292D01*
X57052Y-12271D01*
X57080Y-12175D01*
X56765Y-11860D01*
X56694Y-11931D01*
X56694Y-11790D01*
X56379Y-11474D01*
X56283Y-11502D01*
X56266Y-11550D01*
X56246Y-11502D01*
X56150Y-11474D01*
X55835Y-11790D01*
X56150Y-12105D01*
X56246Y-12077D01*
X56263Y-12029D01*
X56283Y-12077D01*
X56379Y-12105D01*
X56694Y-11790D01*
X56694Y-11931D01*
X56449Y-12175D01*
X56477Y-12271D01*
X56532Y-12290D01*
X56453Y-12323D01*
X56299Y-12478D01*
X56265Y-12559D01*
X56231Y-12478D01*
X56076Y-12324D01*
X56001Y-12292D01*
X56052Y-12271D01*
X56080Y-12175D01*
X55765Y-11860D01*
X55694Y-11931D01*
X55694Y-11790D01*
X55379Y-11474D01*
X55283Y-11502D01*
X55210Y-11708D01*
X55221Y-11926D01*
X55283Y-12077D01*
X55379Y-12105D01*
X55694Y-11790D01*
X55694Y-11931D01*
X55449Y-12175D01*
X55477Y-12271D01*
X55532Y-12290D01*
X55453Y-12323D01*
X55299Y-12478D01*
X55215Y-12680D01*
X55215Y-12720D01*
X53416Y-14518D01*
X51781Y-14518D01*
X51667Y-14541D01*
X51635Y-14563D01*
X51570Y-14606D01*
X51074Y-15102D01*
X51020Y-15102D01*
X51020Y-15008D01*
X51020Y-14909D01*
X51020Y-14909D01*
X51020Y-14811D01*
X51020Y-14712D01*
X51020Y-14712D01*
X51020Y-14614D01*
X51020Y-14515D01*
X51020Y-14515D01*
X51020Y-14417D01*
X51020Y-14319D01*
X50982Y-14227D01*
X50912Y-14157D01*
X50820Y-14119D01*
X50720Y-14118D01*
X50405Y-14118D01*
X50363Y-14136D01*
X50380Y-14094D01*
X50381Y-13994D01*
X50381Y-13772D01*
X50384Y-13771D01*
X50481Y-13706D01*
X50586Y-13601D01*
X50586Y-13601D01*
X50629Y-13536D01*
X50651Y-13504D01*
X50651Y-13504D01*
X50651Y-13503D01*
X50651Y-13503D01*
X50691Y-13487D01*
X50761Y-13416D01*
X50799Y-13324D01*
X50800Y-13225D01*
X50800Y-12675D01*
X50762Y-12583D01*
X50691Y-12513D01*
X50599Y-12475D01*
X50500Y-12474D01*
X50150Y-12474D01*
X50058Y-12512D01*
X50000Y-12571D01*
X49941Y-12512D01*
X49849Y-12474D01*
X49737Y-12475D01*
X49675Y-12537D01*
X49675Y-12950D01*
X49682Y-12950D01*
X49682Y-13050D01*
X49675Y-13050D01*
X49675Y-13057D01*
X49575Y-13057D01*
X49575Y-13050D01*
X49567Y-13050D01*
X49567Y-12950D01*
X49575Y-12950D01*
X49575Y-12537D01*
X49512Y-12475D01*
X49400Y-12474D01*
X49308Y-12512D01*
X49238Y-12583D01*
X49200Y-12675D01*
X49199Y-12774D01*
X49200Y-12887D01*
X49262Y-12949D01*
X49200Y-12949D01*
X49200Y-12976D01*
X48961Y-12738D01*
X48864Y-12673D01*
X48750Y-12650D01*
X45950Y-12650D01*
X45854Y-12669D01*
X45835Y-12673D01*
X45738Y-12738D01*
X45226Y-13250D01*
X44573Y-13250D01*
X44230Y-12907D01*
X44542Y-13037D01*
X44955Y-13037D01*
X45336Y-12879D01*
X45628Y-12588D01*
X45787Y-12207D01*
X45787Y-11794D01*
X45629Y-11413D01*
X45496Y-11279D01*
X55547Y-11279D01*
X55477Y-11308D01*
X55449Y-11404D01*
X55765Y-11719D01*
X56080Y-11404D01*
X56052Y-11308D01*
X55970Y-11279D01*
X56547Y-11279D01*
X56477Y-11308D01*
X56449Y-11404D01*
X56765Y-11719D01*
X57080Y-11404D01*
X57052Y-11308D01*
X56970Y-11279D01*
X59253Y-11279D01*
X59071Y-11461D01*
X58912Y-11842D01*
X58912Y-12255D01*
X59070Y-12636D01*
X59361Y-12928D01*
X59742Y-13087D01*
X60155Y-13087D01*
X60536Y-12929D01*
X60720Y-12746D01*
X60720Y-14950D01*
X60720Y-14950D01*
G37*
G54D25*
X60720Y-14950D02*
X57979Y-14950D01*
X57450Y-15479D01*
X57450Y-15950D01*
X57319Y-15950D01*
X57319Y-11871D01*
X57308Y-11653D01*
X57246Y-11502D01*
X57150Y-11474D01*
X56835Y-11790D01*
X57150Y-12105D01*
X57246Y-12077D01*
X57319Y-11871D01*
X57319Y-15950D01*
X54743Y-15950D01*
X54953Y-15739D01*
X56115Y-15739D01*
X56229Y-15716D01*
X56326Y-15651D01*
X56638Y-15340D01*
X57114Y-15340D01*
X57206Y-15302D01*
X57276Y-15231D01*
X57314Y-15139D01*
X57315Y-15040D01*
X57315Y-14440D01*
X57277Y-14348D01*
X57206Y-14278D01*
X57114Y-14240D01*
X57092Y-14240D01*
X57230Y-14101D01*
X57314Y-13899D01*
X57315Y-13681D01*
X57231Y-13478D01*
X57076Y-13324D01*
X56995Y-13290D01*
X57076Y-13256D01*
X57230Y-13101D01*
X57314Y-12899D01*
X57315Y-12681D01*
X57231Y-12478D01*
X57076Y-12324D01*
X57001Y-12292D01*
X57052Y-12271D01*
X57080Y-12175D01*
X56765Y-11860D01*
X56694Y-11931D01*
X56694Y-11790D01*
X56379Y-11474D01*
X56283Y-11502D01*
X56266Y-11550D01*
X56246Y-11502D01*
X56150Y-11474D01*
X55835Y-11790D01*
X56150Y-12105D01*
X56246Y-12077D01*
X56263Y-12029D01*
X56283Y-12077D01*
X56379Y-12105D01*
X56694Y-11790D01*
X56694Y-11931D01*
X56449Y-12175D01*
X56477Y-12271D01*
X56532Y-12290D01*
X56453Y-12323D01*
X56299Y-12478D01*
X56265Y-12559D01*
X56231Y-12478D01*
X56076Y-12324D01*
X56001Y-12292D01*
X56052Y-12271D01*
X56080Y-12175D01*
X55765Y-11860D01*
X55694Y-11931D01*
X55694Y-11790D01*
X55379Y-11474D01*
X55283Y-11502D01*
X55210Y-11708D01*
X55221Y-11926D01*
X55283Y-12077D01*
X55379Y-12105D01*
X55694Y-11790D01*
X55694Y-11931D01*
X55449Y-12175D01*
X55477Y-12271D01*
X55532Y-12290D01*
X55453Y-12323D01*
X55299Y-12478D01*
X55215Y-12680D01*
X55215Y-12720D01*
X53416Y-14518D01*
X51781Y-14518D01*
X51667Y-14541D01*
X51635Y-14563D01*
X51570Y-14606D01*
X51074Y-15102D01*
X51020Y-15102D01*
X51020Y-15008D01*
X51020Y-14909D01*
X51020Y-14909D01*
X51020Y-14811D01*
X51020Y-14712D01*
X51020Y-14712D01*
X51020Y-14614D01*
X51020Y-14515D01*
X51020Y-14515D01*
X51020Y-14417D01*
X51020Y-14319D01*
X50982Y-14227D01*
X50912Y-14157D01*
X50820Y-14119D01*
X50720Y-14118D01*
X50405Y-14118D01*
X50363Y-14136D01*
X50380Y-14094D01*
X50381Y-13994D01*
X50381Y-13772D01*
X50384Y-13771D01*
X50481Y-13706D01*
X50586Y-13601D01*
X50586Y-13601D01*
X50629Y-13536D01*
X50651Y-13504D01*
X50651Y-13504D01*
X50651Y-13503D01*
X50651Y-13503D01*
X50691Y-13487D01*
X50761Y-13416D01*
X50799Y-13324D01*
X50800Y-13225D01*
X50800Y-12675D01*
X50762Y-12583D01*
X50691Y-12513D01*
X50599Y-12475D01*
X50500Y-12474D01*
X50150Y-12474D01*
X50058Y-12512D01*
X50000Y-12571D01*
X49941Y-12512D01*
X49849Y-12474D01*
X49737Y-12475D01*
X49675Y-12537D01*
X49675Y-12950D01*
X49682Y-12950D01*
X49682Y-13050D01*
X49675Y-13050D01*
X49675Y-13057D01*
X49575Y-13057D01*
X49575Y-13050D01*
X49567Y-13050D01*
X49567Y-12950D01*
X49575Y-12950D01*
X49575Y-12537D01*
X49512Y-12475D01*
X49400Y-12474D01*
X49308Y-12512D01*
X49238Y-12583D01*
X49200Y-12675D01*
X49199Y-12774D01*
X49200Y-12887D01*
X49262Y-12949D01*
X49200Y-12949D01*
X49200Y-12976D01*
X48961Y-12738D01*
X48864Y-12673D01*
X48750Y-12650D01*
X45950Y-12650D01*
X45854Y-12669D01*
X45835Y-12673D01*
X45738Y-12738D01*
X45226Y-13250D01*
X44573Y-13250D01*
X44230Y-12907D01*
X44542Y-13037D01*
X44955Y-13037D01*
X45336Y-12879D01*
X45628Y-12588D01*
X45787Y-12207D01*
X45787Y-11794D01*
X45629Y-11413D01*
X45496Y-11279D01*
X55547Y-11279D01*
X55477Y-11308D01*
X55449Y-11404D01*
X55765Y-11719D01*
X56080Y-11404D01*
X56052Y-11308D01*
X55970Y-11279D01*
X56547Y-11279D01*
X56477Y-11308D01*
X56449Y-11404D01*
X56765Y-11719D01*
X57080Y-11404D01*
X57052Y-11308D01*
X56970Y-11279D01*
X59253Y-11279D01*
X59071Y-11461D01*
X58912Y-11842D01*
X58912Y-12255D01*
X59070Y-12636D01*
X59361Y-12928D01*
X59742Y-13087D01*
X60155Y-13087D01*
X60536Y-12929D01*
X60720Y-12746D01*
X60720Y-14950D01*
M02*
