G04 (created by PCBNEW (2013-jul-07)-stable) date Ср. 13 мая 2015 13:25:06*
%MOIN*%
G04 Gerber Fmt 3.4, Leading zero omitted, Abs format*
%FSLAX34Y34*%
G01*
G70*
G90*
G04 APERTURE LIST*
%ADD10C,0.00590551*%
%ADD11C,0.0039*%
%ADD12C,0.012*%
%ADD13C,0.006*%
%ADD14C,0.015*%
%ADD15C,0.005*%
%ADD16C,0.0043*%
%ADD17C,0.008*%
%ADD18C,0.01*%
G04 APERTURE END LIST*
G54D10*
G54D11*
X48750Y-17850D02*
G75*
G03X48750Y-17850I-50J0D01*
G74*
G01*
X48700Y-18300D02*
X48700Y-17900D01*
X48700Y-17900D02*
X49300Y-17900D01*
X49300Y-17900D02*
X49300Y-18300D01*
X49300Y-18700D02*
X49300Y-19100D01*
X49300Y-19100D02*
X48700Y-19100D01*
X48700Y-19100D02*
X48700Y-18700D01*
X47750Y-17850D02*
G75*
G03X47750Y-17850I-50J0D01*
G74*
G01*
X47700Y-18300D02*
X47700Y-17900D01*
X47700Y-17900D02*
X48300Y-17900D01*
X48300Y-17900D02*
X48300Y-18300D01*
X48300Y-18700D02*
X48300Y-19100D01*
X48300Y-19100D02*
X47700Y-19100D01*
X47700Y-19100D02*
X47700Y-18700D01*
X45850Y-16650D02*
G75*
G03X45850Y-16650I-50J0D01*
G74*
G01*
X45800Y-16200D02*
X45800Y-16600D01*
X45800Y-16600D02*
X45200Y-16600D01*
X45200Y-16600D02*
X45200Y-16200D01*
X45200Y-15800D02*
X45200Y-15400D01*
X45200Y-15400D02*
X45800Y-15400D01*
X45800Y-15400D02*
X45800Y-15800D01*
X49400Y-13300D02*
G75*
G03X49400Y-13300I-50J0D01*
G74*
G01*
X49800Y-13300D02*
X49400Y-13300D01*
X49400Y-13300D02*
X49400Y-12700D01*
X49400Y-12700D02*
X49800Y-12700D01*
X50200Y-12700D02*
X50600Y-12700D01*
X50600Y-12700D02*
X50600Y-13300D01*
X50600Y-13300D02*
X50200Y-13300D01*
X45900Y-17800D02*
G75*
G03X45900Y-17800I-50J0D01*
G74*
G01*
X46300Y-17800D02*
X45900Y-17800D01*
X45900Y-17800D02*
X45900Y-17200D01*
X45900Y-17200D02*
X46300Y-17200D01*
X46700Y-17200D02*
X47100Y-17200D01*
X47100Y-17200D02*
X47100Y-17800D01*
X47100Y-17800D02*
X46700Y-17800D01*
X46250Y-15350D02*
G75*
G03X46250Y-15350I-50J0D01*
G74*
G01*
X46200Y-15800D02*
X46200Y-15400D01*
X46200Y-15400D02*
X46800Y-15400D01*
X46800Y-15400D02*
X46800Y-15800D01*
X46800Y-16200D02*
X46800Y-16600D01*
X46800Y-16600D02*
X46200Y-16600D01*
X46200Y-16600D02*
X46200Y-16200D01*
X42900Y-17800D02*
G75*
G03X42900Y-17800I-50J0D01*
G74*
G01*
X43300Y-17800D02*
X42900Y-17800D01*
X42900Y-17800D02*
X42900Y-17200D01*
X42900Y-17200D02*
X43300Y-17200D01*
X43700Y-17200D02*
X44100Y-17200D01*
X44100Y-17200D02*
X44100Y-17800D01*
X44100Y-17800D02*
X43700Y-17800D01*
X46200Y-19200D02*
G75*
G03X46200Y-19200I-50J0D01*
G74*
G01*
X45700Y-19200D02*
X46100Y-19200D01*
X46100Y-19200D02*
X46100Y-19800D01*
X46100Y-19800D02*
X45700Y-19800D01*
X45300Y-19800D02*
X44900Y-19800D01*
X44900Y-19800D02*
X44900Y-19200D01*
X44900Y-19200D02*
X45300Y-19200D01*
G54D12*
X43500Y-12000D02*
X42500Y-12000D01*
X42500Y-17000D02*
X43500Y-17000D01*
X43500Y-12000D02*
X43500Y-17000D01*
X42500Y-17000D02*
X42500Y-12000D01*
G54D13*
X42500Y-19000D02*
X42500Y-18000D01*
X42500Y-18000D02*
X44500Y-18000D01*
X44500Y-18000D02*
X44500Y-19000D01*
X44500Y-19000D02*
X42500Y-19000D01*
X42500Y-20000D02*
X42500Y-19000D01*
X42500Y-19000D02*
X44500Y-19000D01*
X44500Y-19000D02*
X44500Y-20000D01*
X44500Y-20000D02*
X42500Y-20000D01*
X59525Y-17680D02*
X58525Y-17680D01*
X58525Y-17680D02*
X58525Y-15680D01*
X58525Y-15680D02*
X59525Y-15680D01*
X59525Y-15680D02*
X59525Y-17680D01*
X55320Y-17245D02*
X55320Y-16245D01*
X55320Y-16245D02*
X57320Y-16245D01*
X57320Y-16245D02*
X57320Y-17245D01*
X57320Y-17245D02*
X55320Y-17245D01*
G54D11*
X47505Y-13926D02*
G75*
G03X47505Y-13926I-79J0D01*
G74*
G01*
X47623Y-14123D02*
X47623Y-16877D01*
X47623Y-16877D02*
X50377Y-16877D01*
X50377Y-16877D02*
X50377Y-14123D01*
X50377Y-14123D02*
X47623Y-14123D01*
G54D14*
X60850Y-12050D02*
G75*
G03X60850Y-12050I-900J0D01*
G74*
G01*
X60850Y-19950D02*
G75*
G03X60850Y-19950I-900J0D01*
G74*
G01*
X45650Y-12000D02*
G75*
G03X45650Y-12000I-900J0D01*
G74*
G01*
G54D15*
X55295Y-17835D02*
X55245Y-17835D01*
X55245Y-17835D02*
X55245Y-19935D01*
X56745Y-19935D02*
X56745Y-17835D01*
X56745Y-17835D02*
X55295Y-17835D01*
X56195Y-17835D02*
X56195Y-18035D01*
X56195Y-18035D02*
X55795Y-18035D01*
X55795Y-18035D02*
X55795Y-17835D01*
X56745Y-19935D02*
X55245Y-19935D01*
G54D11*
X53610Y-19565D02*
G75*
G03X53610Y-19565I-50J0D01*
G74*
G01*
X53560Y-19115D02*
X53560Y-19515D01*
X53560Y-19515D02*
X52960Y-19515D01*
X52960Y-19515D02*
X52960Y-19115D01*
X52960Y-18715D02*
X52960Y-18315D01*
X52960Y-18315D02*
X53560Y-18315D01*
X53560Y-18315D02*
X53560Y-18715D01*
X53800Y-18275D02*
G75*
G03X53800Y-18275I-50J0D01*
G74*
G01*
X53750Y-18725D02*
X53750Y-18325D01*
X53750Y-18325D02*
X54350Y-18325D01*
X54350Y-18325D02*
X54350Y-18725D01*
X54350Y-19125D02*
X54350Y-19525D01*
X54350Y-19525D02*
X53750Y-19525D01*
X53750Y-19525D02*
X53750Y-19125D01*
G54D12*
X55265Y-15290D02*
X55265Y-11290D01*
X55265Y-11290D02*
X57265Y-11290D01*
X57265Y-11290D02*
X57265Y-15290D01*
X57265Y-15290D02*
X55265Y-15290D01*
G54D16*
X49517Y-18129D02*
X49451Y-18035D01*
X49404Y-18129D02*
X49404Y-17932D01*
X49479Y-17932D01*
X49498Y-17942D01*
X49507Y-17951D01*
X49517Y-17970D01*
X49517Y-17998D01*
X49507Y-18017D01*
X49498Y-18026D01*
X49479Y-18035D01*
X49404Y-18035D01*
X49582Y-17932D02*
X49714Y-17932D01*
X49629Y-18129D01*
X49488Y-18479D02*
X49376Y-18479D01*
X49432Y-18479D02*
X49432Y-18282D01*
X49413Y-18310D01*
X49395Y-18329D01*
X49376Y-18339D01*
X49610Y-18282D02*
X49629Y-18282D01*
X49648Y-18292D01*
X49657Y-18301D01*
X49667Y-18320D01*
X49676Y-18357D01*
X49676Y-18404D01*
X49667Y-18442D01*
X49657Y-18460D01*
X49648Y-18470D01*
X49629Y-18479D01*
X49610Y-18479D01*
X49592Y-18470D01*
X49582Y-18460D01*
X49573Y-18442D01*
X49563Y-18404D01*
X49563Y-18357D01*
X49573Y-18320D01*
X49582Y-18301D01*
X49592Y-18292D01*
X49610Y-18282D01*
X49798Y-18282D02*
X49817Y-18282D01*
X49836Y-18292D01*
X49845Y-18301D01*
X49854Y-18320D01*
X49864Y-18357D01*
X49864Y-18404D01*
X49854Y-18442D01*
X49845Y-18460D01*
X49836Y-18470D01*
X49817Y-18479D01*
X49798Y-18479D01*
X49779Y-18470D01*
X49770Y-18460D01*
X49760Y-18442D01*
X49751Y-18404D01*
X49751Y-18357D01*
X49760Y-18320D01*
X49770Y-18301D01*
X49779Y-18292D01*
X49798Y-18282D01*
X49948Y-18479D02*
X49948Y-18282D01*
X49967Y-18404D02*
X50023Y-18479D01*
X50023Y-18348D02*
X49948Y-18423D01*
X47417Y-18229D02*
X47351Y-18135D01*
X47304Y-18229D02*
X47304Y-18032D01*
X47379Y-18032D01*
X47398Y-18042D01*
X47407Y-18051D01*
X47417Y-18070D01*
X47417Y-18098D01*
X47407Y-18117D01*
X47398Y-18126D01*
X47379Y-18135D01*
X47304Y-18135D01*
X47529Y-18117D02*
X47510Y-18107D01*
X47501Y-18098D01*
X47492Y-18079D01*
X47492Y-18070D01*
X47501Y-18051D01*
X47510Y-18042D01*
X47529Y-18032D01*
X47567Y-18032D01*
X47586Y-18042D01*
X47595Y-18051D01*
X47604Y-18070D01*
X47604Y-18079D01*
X47595Y-18098D01*
X47586Y-18107D01*
X47567Y-18117D01*
X47529Y-18117D01*
X47510Y-18126D01*
X47501Y-18135D01*
X47492Y-18154D01*
X47492Y-18192D01*
X47501Y-18210D01*
X47510Y-18220D01*
X47529Y-18229D01*
X47567Y-18229D01*
X47586Y-18220D01*
X47595Y-18210D01*
X47604Y-18192D01*
X47604Y-18154D01*
X47595Y-18135D01*
X47586Y-18126D01*
X47567Y-18117D01*
X47038Y-18579D02*
X46926Y-18579D01*
X46982Y-18579D02*
X46982Y-18382D01*
X46963Y-18410D01*
X46945Y-18429D01*
X46926Y-18439D01*
X47160Y-18382D02*
X47179Y-18382D01*
X47198Y-18392D01*
X47207Y-18401D01*
X47217Y-18420D01*
X47226Y-18457D01*
X47226Y-18504D01*
X47217Y-18542D01*
X47207Y-18560D01*
X47198Y-18570D01*
X47179Y-18579D01*
X47160Y-18579D01*
X47142Y-18570D01*
X47132Y-18560D01*
X47123Y-18542D01*
X47113Y-18504D01*
X47113Y-18457D01*
X47123Y-18420D01*
X47132Y-18401D01*
X47142Y-18392D01*
X47160Y-18382D01*
X47348Y-18382D02*
X47367Y-18382D01*
X47386Y-18392D01*
X47395Y-18401D01*
X47404Y-18420D01*
X47414Y-18457D01*
X47414Y-18504D01*
X47404Y-18542D01*
X47395Y-18560D01*
X47386Y-18570D01*
X47367Y-18579D01*
X47348Y-18579D01*
X47329Y-18570D01*
X47320Y-18560D01*
X47310Y-18542D01*
X47301Y-18504D01*
X47301Y-18457D01*
X47310Y-18420D01*
X47320Y-18401D01*
X47329Y-18392D01*
X47348Y-18382D01*
X47498Y-18579D02*
X47498Y-18382D01*
X47517Y-18504D02*
X47573Y-18579D01*
X47573Y-18448D02*
X47498Y-18523D01*
X44817Y-16810D02*
X44807Y-16820D01*
X44779Y-16829D01*
X44760Y-16829D01*
X44732Y-16820D01*
X44713Y-16801D01*
X44704Y-16782D01*
X44695Y-16745D01*
X44695Y-16717D01*
X44704Y-16679D01*
X44713Y-16660D01*
X44732Y-16642D01*
X44760Y-16632D01*
X44779Y-16632D01*
X44807Y-16642D01*
X44817Y-16651D01*
X44986Y-16632D02*
X44948Y-16632D01*
X44929Y-16642D01*
X44920Y-16651D01*
X44901Y-16679D01*
X44892Y-16717D01*
X44892Y-16792D01*
X44901Y-16810D01*
X44910Y-16820D01*
X44929Y-16829D01*
X44967Y-16829D01*
X44986Y-16820D01*
X44995Y-16810D01*
X45004Y-16792D01*
X45004Y-16745D01*
X44995Y-16726D01*
X44986Y-16717D01*
X44967Y-16707D01*
X44929Y-16707D01*
X44910Y-16717D01*
X44901Y-16726D01*
X44892Y-16745D01*
X45367Y-16979D02*
X45254Y-16979D01*
X45310Y-16979D02*
X45310Y-16782D01*
X45292Y-16810D01*
X45273Y-16829D01*
X45254Y-16839D01*
X45536Y-16848D02*
X45536Y-16979D01*
X45451Y-16848D02*
X45451Y-16951D01*
X45460Y-16970D01*
X45479Y-16979D01*
X45507Y-16979D01*
X45526Y-16970D01*
X45536Y-16960D01*
X49867Y-12510D02*
X49857Y-12520D01*
X49829Y-12529D01*
X49810Y-12529D01*
X49782Y-12520D01*
X49763Y-12501D01*
X49754Y-12482D01*
X49745Y-12445D01*
X49745Y-12417D01*
X49754Y-12379D01*
X49763Y-12360D01*
X49782Y-12342D01*
X49810Y-12332D01*
X49829Y-12332D01*
X49857Y-12342D01*
X49867Y-12351D01*
X50045Y-12332D02*
X49951Y-12332D01*
X49942Y-12426D01*
X49951Y-12417D01*
X49970Y-12407D01*
X50017Y-12407D01*
X50036Y-12417D01*
X50045Y-12426D01*
X50054Y-12445D01*
X50054Y-12492D01*
X50045Y-12510D01*
X50036Y-12520D01*
X50017Y-12529D01*
X49970Y-12529D01*
X49951Y-12520D01*
X49942Y-12510D01*
X50429Y-12529D02*
X50316Y-12529D01*
X50373Y-12529D02*
X50373Y-12332D01*
X50354Y-12360D01*
X50335Y-12379D01*
X50316Y-12389D01*
X50551Y-12332D02*
X50570Y-12332D01*
X50589Y-12342D01*
X50598Y-12351D01*
X50607Y-12370D01*
X50617Y-12407D01*
X50617Y-12454D01*
X50607Y-12492D01*
X50598Y-12510D01*
X50589Y-12520D01*
X50570Y-12529D01*
X50551Y-12529D01*
X50532Y-12520D01*
X50523Y-12510D01*
X50513Y-12492D01*
X50504Y-12454D01*
X50504Y-12407D01*
X50513Y-12370D01*
X50523Y-12351D01*
X50532Y-12342D01*
X50551Y-12332D01*
X50739Y-12332D02*
X50757Y-12332D01*
X50776Y-12342D01*
X50786Y-12351D01*
X50795Y-12370D01*
X50804Y-12407D01*
X50804Y-12454D01*
X50795Y-12492D01*
X50786Y-12510D01*
X50776Y-12520D01*
X50757Y-12529D01*
X50739Y-12529D01*
X50720Y-12520D01*
X50710Y-12510D01*
X50701Y-12492D01*
X50692Y-12454D01*
X50692Y-12407D01*
X50701Y-12370D01*
X50710Y-12351D01*
X50720Y-12342D01*
X50739Y-12332D01*
X50889Y-12398D02*
X50889Y-12529D01*
X50889Y-12417D02*
X50898Y-12407D01*
X50917Y-12398D01*
X50945Y-12398D01*
X50964Y-12407D01*
X50973Y-12426D01*
X50973Y-12529D01*
X46017Y-18110D02*
X46007Y-18120D01*
X45979Y-18129D01*
X45960Y-18129D01*
X45932Y-18120D01*
X45913Y-18101D01*
X45904Y-18082D01*
X45895Y-18045D01*
X45895Y-18017D01*
X45904Y-17979D01*
X45913Y-17960D01*
X45932Y-17942D01*
X45960Y-17932D01*
X45979Y-17932D01*
X46007Y-17942D01*
X46017Y-17951D01*
X46186Y-17998D02*
X46186Y-18129D01*
X46139Y-17923D02*
X46092Y-18064D01*
X46214Y-18064D01*
X46529Y-18079D02*
X46416Y-18079D01*
X46473Y-18079D02*
X46473Y-17882D01*
X46454Y-17910D01*
X46435Y-17929D01*
X46416Y-17939D01*
X46651Y-17882D02*
X46670Y-17882D01*
X46689Y-17892D01*
X46698Y-17901D01*
X46707Y-17920D01*
X46717Y-17957D01*
X46717Y-18004D01*
X46707Y-18042D01*
X46698Y-18060D01*
X46689Y-18070D01*
X46670Y-18079D01*
X46651Y-18079D01*
X46632Y-18070D01*
X46623Y-18060D01*
X46613Y-18042D01*
X46604Y-18004D01*
X46604Y-17957D01*
X46613Y-17920D01*
X46623Y-17901D01*
X46632Y-17892D01*
X46651Y-17882D01*
X46839Y-17882D02*
X46857Y-17882D01*
X46876Y-17892D01*
X46886Y-17901D01*
X46895Y-17920D01*
X46904Y-17957D01*
X46904Y-18004D01*
X46895Y-18042D01*
X46886Y-18060D01*
X46876Y-18070D01*
X46857Y-18079D01*
X46839Y-18079D01*
X46820Y-18070D01*
X46810Y-18060D01*
X46801Y-18042D01*
X46792Y-18004D01*
X46792Y-17957D01*
X46801Y-17920D01*
X46810Y-17901D01*
X46820Y-17892D01*
X46839Y-17882D01*
X46989Y-17948D02*
X46989Y-18079D01*
X46989Y-17967D02*
X46998Y-17957D01*
X47017Y-17948D01*
X47045Y-17948D01*
X47064Y-17957D01*
X47073Y-17976D01*
X47073Y-18079D01*
X46117Y-16910D02*
X46107Y-16920D01*
X46079Y-16929D01*
X46060Y-16929D01*
X46032Y-16920D01*
X46013Y-16901D01*
X46004Y-16882D01*
X45995Y-16845D01*
X45995Y-16817D01*
X46004Y-16779D01*
X46013Y-16760D01*
X46032Y-16742D01*
X46060Y-16732D01*
X46079Y-16732D01*
X46107Y-16742D01*
X46117Y-16751D01*
X46182Y-16732D02*
X46304Y-16732D01*
X46239Y-16807D01*
X46267Y-16807D01*
X46286Y-16817D01*
X46295Y-16826D01*
X46304Y-16845D01*
X46304Y-16892D01*
X46295Y-16910D01*
X46286Y-16920D01*
X46267Y-16929D01*
X46210Y-16929D01*
X46192Y-16920D01*
X46182Y-16910D01*
X46629Y-16929D02*
X46516Y-16929D01*
X46573Y-16929D02*
X46573Y-16732D01*
X46554Y-16760D01*
X46535Y-16779D01*
X46516Y-16789D01*
X46751Y-16732D02*
X46770Y-16732D01*
X46789Y-16742D01*
X46798Y-16751D01*
X46807Y-16770D01*
X46817Y-16807D01*
X46817Y-16854D01*
X46807Y-16892D01*
X46798Y-16910D01*
X46789Y-16920D01*
X46770Y-16929D01*
X46751Y-16929D01*
X46732Y-16920D01*
X46723Y-16910D01*
X46713Y-16892D01*
X46704Y-16854D01*
X46704Y-16807D01*
X46713Y-16770D01*
X46723Y-16751D01*
X46732Y-16742D01*
X46751Y-16732D01*
X46939Y-16732D02*
X46957Y-16732D01*
X46976Y-16742D01*
X46986Y-16751D01*
X46995Y-16770D01*
X47004Y-16807D01*
X47004Y-16854D01*
X46995Y-16892D01*
X46986Y-16910D01*
X46976Y-16920D01*
X46957Y-16929D01*
X46939Y-16929D01*
X46920Y-16920D01*
X46910Y-16910D01*
X46901Y-16892D01*
X46892Y-16854D01*
X46892Y-16807D01*
X46901Y-16770D01*
X46910Y-16751D01*
X46920Y-16742D01*
X46939Y-16732D01*
X47089Y-16798D02*
X47089Y-16929D01*
X47089Y-16817D02*
X47098Y-16807D01*
X47117Y-16798D01*
X47145Y-16798D01*
X47164Y-16807D01*
X47173Y-16826D01*
X47173Y-16929D01*
X44367Y-17210D02*
X44357Y-17220D01*
X44329Y-17229D01*
X44310Y-17229D01*
X44282Y-17220D01*
X44263Y-17201D01*
X44254Y-17182D01*
X44245Y-17145D01*
X44245Y-17117D01*
X44254Y-17079D01*
X44263Y-17060D01*
X44282Y-17042D01*
X44310Y-17032D01*
X44329Y-17032D01*
X44357Y-17042D01*
X44367Y-17051D01*
X44554Y-17229D02*
X44442Y-17229D01*
X44498Y-17229D02*
X44498Y-17032D01*
X44479Y-17060D01*
X44460Y-17079D01*
X44442Y-17089D01*
X44329Y-17729D02*
X44216Y-17729D01*
X44273Y-17729D02*
X44273Y-17532D01*
X44254Y-17560D01*
X44235Y-17579D01*
X44216Y-17589D01*
X44451Y-17532D02*
X44470Y-17532D01*
X44489Y-17542D01*
X44498Y-17551D01*
X44507Y-17570D01*
X44517Y-17607D01*
X44517Y-17654D01*
X44507Y-17692D01*
X44498Y-17710D01*
X44489Y-17720D01*
X44470Y-17729D01*
X44451Y-17729D01*
X44432Y-17720D01*
X44423Y-17710D01*
X44413Y-17692D01*
X44404Y-17654D01*
X44404Y-17607D01*
X44413Y-17570D01*
X44423Y-17551D01*
X44432Y-17542D01*
X44451Y-17532D01*
X44639Y-17532D02*
X44657Y-17532D01*
X44676Y-17542D01*
X44686Y-17551D01*
X44695Y-17570D01*
X44704Y-17607D01*
X44704Y-17654D01*
X44695Y-17692D01*
X44686Y-17710D01*
X44676Y-17720D01*
X44657Y-17729D01*
X44639Y-17729D01*
X44620Y-17720D01*
X44610Y-17710D01*
X44601Y-17692D01*
X44592Y-17654D01*
X44592Y-17607D01*
X44601Y-17570D01*
X44610Y-17551D01*
X44620Y-17542D01*
X44639Y-17532D01*
X44789Y-17598D02*
X44789Y-17729D01*
X44789Y-17617D02*
X44798Y-17607D01*
X44817Y-17598D01*
X44845Y-17598D01*
X44864Y-17607D01*
X44873Y-17626D01*
X44873Y-17729D01*
X45067Y-20110D02*
X45057Y-20120D01*
X45029Y-20129D01*
X45010Y-20129D01*
X44982Y-20120D01*
X44963Y-20101D01*
X44954Y-20082D01*
X44945Y-20045D01*
X44945Y-20017D01*
X44954Y-19979D01*
X44963Y-19960D01*
X44982Y-19942D01*
X45010Y-19932D01*
X45029Y-19932D01*
X45057Y-19942D01*
X45067Y-19951D01*
X45142Y-19951D02*
X45151Y-19942D01*
X45170Y-19932D01*
X45217Y-19932D01*
X45236Y-19942D01*
X45245Y-19951D01*
X45254Y-19970D01*
X45254Y-19989D01*
X45245Y-20017D01*
X45132Y-20129D01*
X45254Y-20129D01*
X45779Y-20129D02*
X45666Y-20129D01*
X45723Y-20129D02*
X45723Y-19932D01*
X45704Y-19960D01*
X45685Y-19979D01*
X45666Y-19989D01*
X45901Y-19932D02*
X45920Y-19932D01*
X45939Y-19942D01*
X45948Y-19951D01*
X45957Y-19970D01*
X45967Y-20007D01*
X45967Y-20054D01*
X45957Y-20092D01*
X45948Y-20110D01*
X45939Y-20120D01*
X45920Y-20129D01*
X45901Y-20129D01*
X45882Y-20120D01*
X45873Y-20110D01*
X45863Y-20092D01*
X45854Y-20054D01*
X45854Y-20007D01*
X45863Y-19970D01*
X45873Y-19951D01*
X45882Y-19942D01*
X45901Y-19932D01*
X46089Y-19932D02*
X46107Y-19932D01*
X46126Y-19942D01*
X46136Y-19951D01*
X46145Y-19970D01*
X46154Y-20007D01*
X46154Y-20054D01*
X46145Y-20092D01*
X46136Y-20110D01*
X46126Y-20120D01*
X46107Y-20129D01*
X46089Y-20129D01*
X46070Y-20120D01*
X46060Y-20110D01*
X46051Y-20092D01*
X46042Y-20054D01*
X46042Y-20007D01*
X46051Y-19970D01*
X46060Y-19951D01*
X46070Y-19942D01*
X46089Y-19932D01*
X46239Y-19998D02*
X46239Y-20129D01*
X46239Y-20017D02*
X46248Y-20007D01*
X46267Y-19998D01*
X46295Y-19998D01*
X46314Y-20007D01*
X46323Y-20026D01*
X46323Y-20129D01*
G54D17*
X44161Y-14795D02*
X43761Y-14795D01*
X43761Y-14642D01*
X43780Y-14604D01*
X43800Y-14585D01*
X43838Y-14566D01*
X43895Y-14566D01*
X43933Y-14585D01*
X43952Y-14604D01*
X43971Y-14642D01*
X43971Y-14795D01*
X44161Y-14185D02*
X44161Y-14414D01*
X44161Y-14299D02*
X43761Y-14299D01*
X43819Y-14338D01*
X43857Y-14376D01*
X43876Y-14414D01*
G54D13*
X44728Y-18671D02*
X44728Y-18371D01*
X44842Y-18371D01*
X44871Y-18385D01*
X44885Y-18400D01*
X44900Y-18428D01*
X44900Y-18471D01*
X44885Y-18500D01*
X44871Y-18514D01*
X44842Y-18528D01*
X44728Y-18528D01*
X45157Y-18471D02*
X45157Y-18671D01*
X45085Y-18357D02*
X45014Y-18571D01*
X45200Y-18571D01*
X43278Y-20471D02*
X43278Y-20171D01*
X43392Y-20171D01*
X43421Y-20185D01*
X43435Y-20200D01*
X43450Y-20228D01*
X43450Y-20271D01*
X43435Y-20300D01*
X43421Y-20314D01*
X43392Y-20328D01*
X43278Y-20328D01*
X43550Y-20171D02*
X43735Y-20171D01*
X43635Y-20285D01*
X43678Y-20285D01*
X43707Y-20300D01*
X43721Y-20314D01*
X43735Y-20342D01*
X43735Y-20414D01*
X43721Y-20442D01*
X43707Y-20457D01*
X43678Y-20471D01*
X43592Y-20471D01*
X43564Y-20457D01*
X43550Y-20442D01*
X58239Y-16915D02*
X58253Y-16872D01*
X58267Y-16858D01*
X58296Y-16844D01*
X58339Y-16844D01*
X58367Y-16858D01*
X58382Y-16872D01*
X58396Y-16901D01*
X58396Y-17015D01*
X58096Y-17015D01*
X58096Y-16915D01*
X58110Y-16887D01*
X58125Y-16872D01*
X58153Y-16858D01*
X58182Y-16858D01*
X58210Y-16872D01*
X58225Y-16887D01*
X58239Y-16915D01*
X58239Y-17015D01*
X58096Y-16758D02*
X58096Y-16587D01*
X58396Y-16672D02*
X58096Y-16672D01*
X58396Y-16330D02*
X58396Y-16501D01*
X58396Y-16415D02*
X58096Y-16415D01*
X58139Y-16444D01*
X58167Y-16472D01*
X58182Y-16501D01*
X56098Y-16116D02*
X56098Y-15816D01*
X56212Y-15816D01*
X56241Y-15830D01*
X56255Y-15845D01*
X56270Y-15873D01*
X56270Y-15916D01*
X56255Y-15945D01*
X56241Y-15959D01*
X56212Y-15973D01*
X56098Y-15973D01*
X56384Y-15845D02*
X56398Y-15830D01*
X56427Y-15816D01*
X56498Y-15816D01*
X56527Y-15830D01*
X56541Y-15845D01*
X56555Y-15873D01*
X56555Y-15902D01*
X56541Y-15945D01*
X56370Y-16116D01*
X56555Y-16116D01*
G54D18*
G54D13*
X54907Y-20132D02*
X54907Y-20496D01*
X54928Y-20539D01*
X54950Y-20560D01*
X54992Y-20582D01*
X55078Y-20582D01*
X55121Y-20560D01*
X55142Y-20539D01*
X55164Y-20496D01*
X55164Y-20132D01*
X55357Y-20175D02*
X55378Y-20153D01*
X55421Y-20132D01*
X55528Y-20132D01*
X55571Y-20153D01*
X55592Y-20175D01*
X55614Y-20217D01*
X55614Y-20260D01*
X55592Y-20325D01*
X55335Y-20582D01*
X55614Y-20582D01*
X56199Y-20525D02*
X56249Y-20541D01*
X56333Y-20541D01*
X56366Y-20525D01*
X56383Y-20508D01*
X56399Y-20475D01*
X56399Y-20441D01*
X56383Y-20408D01*
X56366Y-20391D01*
X56333Y-20375D01*
X56266Y-20358D01*
X56233Y-20341D01*
X56216Y-20325D01*
X56199Y-20291D01*
X56199Y-20258D01*
X56216Y-20225D01*
X56233Y-20208D01*
X56266Y-20191D01*
X56349Y-20191D01*
X56399Y-20208D01*
X56550Y-20541D02*
X56550Y-20191D01*
X56733Y-20541D02*
X56799Y-20541D01*
X56833Y-20525D01*
X56849Y-20508D01*
X56883Y-20458D01*
X56899Y-20391D01*
X56899Y-20258D01*
X56883Y-20225D01*
X56866Y-20208D01*
X56833Y-20191D01*
X56766Y-20191D01*
X56733Y-20208D01*
X56716Y-20225D01*
X56699Y-20258D01*
X56699Y-20341D01*
X56716Y-20375D01*
X56733Y-20391D01*
X56766Y-20408D01*
X56833Y-20408D01*
X56866Y-20391D01*
X56883Y-20375D01*
X56899Y-20341D01*
X57066Y-20541D02*
X57133Y-20541D01*
X57166Y-20525D01*
X57183Y-20508D01*
X57216Y-20458D01*
X57233Y-20391D01*
X57233Y-20258D01*
X57216Y-20225D01*
X57200Y-20208D01*
X57166Y-20191D01*
X57100Y-20191D01*
X57066Y-20208D01*
X57050Y-20225D01*
X57033Y-20258D01*
X57033Y-20341D01*
X57050Y-20375D01*
X57066Y-20391D01*
X57100Y-20408D01*
X57166Y-20408D01*
X57200Y-20391D01*
X57216Y-20375D01*
X57233Y-20341D01*
X57433Y-20341D02*
X57400Y-20325D01*
X57383Y-20308D01*
X57366Y-20275D01*
X57366Y-20258D01*
X57383Y-20225D01*
X57400Y-20208D01*
X57433Y-20191D01*
X57500Y-20191D01*
X57533Y-20208D01*
X57550Y-20225D01*
X57566Y-20258D01*
X57566Y-20275D01*
X57550Y-20308D01*
X57533Y-20325D01*
X57500Y-20341D01*
X57433Y-20341D01*
X57400Y-20358D01*
X57383Y-20375D01*
X57366Y-20408D01*
X57366Y-20475D01*
X57383Y-20508D01*
X57400Y-20525D01*
X57433Y-20541D01*
X57500Y-20541D01*
X57533Y-20525D01*
X57550Y-20508D01*
X57566Y-20475D01*
X57566Y-20408D01*
X57550Y-20375D01*
X57533Y-20358D01*
X57500Y-20341D01*
X57866Y-20191D02*
X57800Y-20191D01*
X57766Y-20208D01*
X57750Y-20225D01*
X57716Y-20275D01*
X57700Y-20341D01*
X57700Y-20475D01*
X57716Y-20508D01*
X57733Y-20525D01*
X57766Y-20541D01*
X57833Y-20541D01*
X57866Y-20525D01*
X57883Y-20508D01*
X57900Y-20475D01*
X57900Y-20391D01*
X57883Y-20358D01*
X57866Y-20341D01*
X57833Y-20325D01*
X57766Y-20325D01*
X57733Y-20341D01*
X57716Y-20358D01*
X57700Y-20391D01*
G54D16*
X53510Y-19882D02*
X53520Y-19892D01*
X53529Y-19920D01*
X53529Y-19939D01*
X53520Y-19967D01*
X53501Y-19986D01*
X53482Y-19995D01*
X53445Y-20004D01*
X53417Y-20004D01*
X53379Y-19995D01*
X53360Y-19986D01*
X53342Y-19967D01*
X53332Y-19939D01*
X53332Y-19920D01*
X53342Y-19892D01*
X53351Y-19882D01*
X53417Y-19770D02*
X53407Y-19789D01*
X53398Y-19798D01*
X53379Y-19807D01*
X53370Y-19807D01*
X53351Y-19798D01*
X53342Y-19789D01*
X53332Y-19770D01*
X53332Y-19732D01*
X53342Y-19713D01*
X53351Y-19704D01*
X53370Y-19695D01*
X53379Y-19695D01*
X53398Y-19704D01*
X53407Y-19713D01*
X53417Y-19732D01*
X53417Y-19770D01*
X53426Y-19789D01*
X53435Y-19798D01*
X53454Y-19807D01*
X53492Y-19807D01*
X53510Y-19798D01*
X53520Y-19789D01*
X53529Y-19770D01*
X53529Y-19732D01*
X53520Y-19713D01*
X53510Y-19704D01*
X53492Y-19695D01*
X53454Y-19695D01*
X53435Y-19704D01*
X53426Y-19713D01*
X53417Y-19732D01*
X53129Y-19832D02*
X53129Y-19945D01*
X53129Y-19889D02*
X52932Y-19889D01*
X52960Y-19907D01*
X52979Y-19926D01*
X52989Y-19945D01*
X52998Y-19663D02*
X53129Y-19663D01*
X52998Y-19748D02*
X53101Y-19748D01*
X53120Y-19739D01*
X53129Y-19720D01*
X53129Y-19692D01*
X53120Y-19673D01*
X53110Y-19663D01*
X54360Y-19882D02*
X54370Y-19892D01*
X54379Y-19920D01*
X54379Y-19939D01*
X54370Y-19967D01*
X54351Y-19986D01*
X54332Y-19995D01*
X54295Y-20004D01*
X54267Y-20004D01*
X54229Y-19995D01*
X54210Y-19986D01*
X54192Y-19967D01*
X54182Y-19939D01*
X54182Y-19920D01*
X54192Y-19892D01*
X54201Y-19882D01*
X54182Y-19817D02*
X54182Y-19685D01*
X54379Y-19770D01*
X53979Y-20170D02*
X53979Y-20283D01*
X53979Y-20226D02*
X53782Y-20226D01*
X53810Y-20245D01*
X53829Y-20264D01*
X53839Y-20283D01*
X53782Y-20048D02*
X53782Y-20029D01*
X53792Y-20010D01*
X53801Y-20001D01*
X53820Y-19992D01*
X53857Y-19982D01*
X53904Y-19982D01*
X53942Y-19992D01*
X53960Y-20001D01*
X53970Y-20010D01*
X53979Y-20029D01*
X53979Y-20048D01*
X53970Y-20067D01*
X53960Y-20076D01*
X53942Y-20086D01*
X53904Y-20095D01*
X53857Y-20095D01*
X53820Y-20086D01*
X53801Y-20076D01*
X53792Y-20067D01*
X53782Y-20048D01*
X53782Y-19860D02*
X53782Y-19842D01*
X53792Y-19823D01*
X53801Y-19813D01*
X53820Y-19804D01*
X53857Y-19795D01*
X53904Y-19795D01*
X53942Y-19804D01*
X53960Y-19813D01*
X53970Y-19823D01*
X53979Y-19842D01*
X53979Y-19860D01*
X53970Y-19879D01*
X53960Y-19889D01*
X53942Y-19898D01*
X53904Y-19907D01*
X53857Y-19907D01*
X53820Y-19898D01*
X53801Y-19889D01*
X53792Y-19879D01*
X53782Y-19860D01*
X53848Y-19710D02*
X53979Y-19710D01*
X53867Y-19710D02*
X53857Y-19701D01*
X53848Y-19682D01*
X53848Y-19654D01*
X53857Y-19635D01*
X53876Y-19626D01*
X53979Y-19626D01*
G54D17*
X54926Y-13585D02*
X54526Y-13585D01*
X54526Y-13432D01*
X54545Y-13394D01*
X54565Y-13375D01*
X54603Y-13356D01*
X54660Y-13356D01*
X54698Y-13375D01*
X54717Y-13394D01*
X54736Y-13432D01*
X54736Y-13585D01*
X54526Y-13013D02*
X54526Y-13089D01*
X54545Y-13128D01*
X54565Y-13147D01*
X54622Y-13185D01*
X54698Y-13204D01*
X54850Y-13204D01*
X54888Y-13185D01*
X54907Y-13166D01*
X54926Y-13128D01*
X54926Y-13051D01*
X54907Y-13013D01*
X54888Y-12994D01*
X54850Y-12975D01*
X54755Y-12975D01*
X54717Y-12994D01*
X54698Y-13013D01*
X54679Y-13051D01*
X54679Y-13128D01*
X54698Y-13166D01*
X54717Y-13185D01*
X54755Y-13204D01*
M02*
