<svg xmlns="http://www.w3.org/2000/svg" version="1.1"
     width="400mm" height="400mm" viewBox="0 0 400 400">
     <g stroke="red" stroke-width="1" fill="none">
        <!-- Vertical lines -->
        <line x1="0" y1="0" x2="0" y2="310" />
        <line x1="171" y1="0" x2="171" y2="310" />
        <line x1="226" y1="0" x2="226" y2="184" />
        <!-- Horizontal lines -->
        <line x1="0" y1="0" x2="226" y2="0" />
        <line x1="0" y1="92" x2="226" y2="92" />
        <line x1="0" y1="184" x2="226" y2="184" />
        <line x1="0" y1="247" x2="171" y2="247" />
        <line x1="0" y1="310" x2="171" y2="310" />
        <!-- Holes on the front side -->
        <g id="front" transform="translate(0 0)">
            <circle cx="55" cy="11" r="1.5" />
            <circle cx="139" cy="11" r="1.5" />
            <circle cx="112" cy="66" r="1.5" />
        </g>
        <!-- Holes on the back side -->
        <g id="back" transform="translate(0 92)">
            <circle cx="10.5" cy="15" r="2" />
            <circle cx="10.5" cy="77" r="2" />
            <circle cx="160.5" cy="15" r="2" />
            <circle cx="160.5" cy="77" r="2" />
        </g>
        <!-- Holes on the top side -->
        <g id="top" transform="translate(0 184)">
            <circle cx="104" cy="31.5" r="5" />

            <!-- Hole for the pusher -->
            <path d="
                M 20 41.5 
                H 42
                A 10 10 0 0 0 42 21.5
                H 20
                A 10 10 0 0 0 20 41.5
                " />

        </g>
     </g>
</svg>