M48
;DRILL file {Pcbnew (2013-jul-07)-stable} date Пн. 11 мая 2015 11:27:21
;FORMAT={-:-/ absolute / metric / decimal}
FMAT,2
METRIC,TZ
T1C0.400
T2C0.800
T3C1.016
T4C2.000
%
G90
G05
M71
T1
X107.95Y-44.45
X114.071Y-39.624
X115.113Y-44.856
X118.11Y-50.165
X121.92Y-36.83
X121.92Y-39.37
X123.19Y-38.1
X124.46Y-36.83
X125.768Y-31.242
X137.884Y-41.643
X142.164Y-44.983
X146.317Y-44.729
X149.733Y-47.879
T2
X111.92Y-40.64
X131.92Y-40.64
T3
X109.22Y-31.75
X109.22Y-34.29
X109.22Y-36.83
X109.22Y-39.37
X109.22Y-41.91
X109.22Y-46.99
X109.22Y-49.53
X111.76Y-46.99
X111.76Y-49.53
X140.97Y-41.91
X143.51Y-41.91
X148.463Y-36.322
X151.003Y-36.322
T4
X113.665Y-30.48
X152.273Y-30.607
X152.273Y-50.673
T0
M30
